<?xml version="1.0" encoding="UTF-8"?> <svg xmlns="http://www.w3.org/2000/svg" width="833" height="209" viewBox="0 0 833 209" fill="none"> <path d="M140.844 40.3594V42.3594H142.844V40.3594H140.844ZM52.1094 40.3594V38.3594H50.1094V40.3594H52.1094ZM52.1094 72.7031H50.1094V74.7031H52.1094V72.7031ZM149.281 104.484L147.61 105.583L147.616 105.592L147.622 105.601L149.281 104.484ZM136.906 188.156L135.622 186.623L135.617 186.627L136.906 188.156ZM2.46875 207H0.46875V209H2.46875V207ZM2.46875 2.25V0.25H0.46875V2.25H2.46875ZM140.844 2.25H142.844V0.25H140.844V2.25ZM52.1094 110.672V108.672H50.1094V110.672H52.1094ZM52.1094 169.031H50.1094V171.031H52.1094V169.031ZM101.188 160.594L99.8082 159.145L99.8024 159.151L99.7967 159.157L101.188 160.594ZM140.844 38.3594H52.1094V42.3594H140.844V38.3594ZM50.1094 40.3594V72.7031H54.1094V40.3594H50.1094ZM52.1094 74.7031H77.5625V70.7031H52.1094V74.7031ZM77.5625 74.7031C93.5539 74.7031 107.613 77.4296 119.783 82.8282L121.405 79.1718C108.637 73.5079 94.0086 70.7031 77.5625 70.7031V74.7031ZM119.783 82.8282C131.946 88.224 141.19 95.8179 147.61 105.583L150.952 103.386C144.06 92.9009 134.179 84.8385 121.405 79.1718L119.783 82.8282ZM147.622 105.601C154.132 115.276 157.406 126.412 157.406 139.078H161.406C161.406 125.682 157.93 113.755 150.941 103.368L147.622 105.601ZM157.406 139.078C157.406 158.663 150.153 174.453 135.622 186.623L138.19 189.69C153.66 176.734 161.406 159.806 161.406 139.078H157.406ZM135.617 186.627C121.167 198.805 101.607 205 76.7188 205V209C102.268 209 122.833 202.632 138.195 189.686L135.617 186.627ZM76.7188 205H2.46875V209H76.7188V205ZM4.46875 207V2.25H0.46875V207H4.46875ZM2.46875 4.25H140.844V0.25H2.46875V4.25ZM138.844 2.25V40.3594H142.844V2.25H138.844ZM50.1094 110.672V169.031H54.1094V110.672H50.1094ZM52.1094 171.031H77.4219V167.031H52.1094V171.031ZM77.4219 171.031C87.8408 171.031 96.308 168.099 102.578 162.031L99.7967 159.157C94.442 164.339 87.0654 167.031 77.4219 167.031V171.031ZM102.567 162.042C108.908 156.003 112.047 148.195 112.047 138.797H108.047C108.047 147.212 105.279 153.935 99.8082 159.145L102.567 162.042ZM112.047 138.797C112.047 129.843 108.935 122.481 102.655 116.91L100.001 119.902C105.346 124.644 108.047 130.876 108.047 138.797H112.047ZM102.655 116.91C96.3712 111.335 87.7795 108.672 77.1406 108.672V112.672C87.1267 112.672 94.6601 115.165 100.001 119.902L102.655 116.91ZM77.1406 108.672H52.1094V112.672H77.1406V108.672ZM309.453 120.234V122.234H311.453V120.234H309.453ZM231.828 120.234V118.234H229.828V120.234H231.828ZM231.828 169.031H229.828V171.031H231.828V169.031ZM323.516 169.031H325.516V167.031H323.516V169.031ZM323.516 207V209H325.516V207H323.516ZM182.469 207H180.469V209H182.469V207ZM182.469 2.25V0.25H180.469V2.25H182.469ZM323.797 2.25H325.797V0.25H323.797V2.25ZM323.797 40.3594V42.3594H325.797V40.3594H323.797ZM231.828 40.3594V38.3594H229.828V40.3594H231.828ZM231.828 83.5312H229.828V85.5312H231.828V83.5312ZM309.453 83.5312H311.453V81.5312H309.453V83.5312ZM309.453 118.234H231.828V122.234H309.453V118.234ZM229.828 120.234V169.031H233.828V120.234H229.828ZM231.828 171.031H323.516V167.031H231.828V171.031ZM321.516 169.031V207H325.516V169.031H321.516ZM323.516 205H182.469V209H323.516V205ZM184.469 207V2.25H180.469V207H184.469ZM182.469 4.25H323.797V0.25H182.469V4.25ZM321.797 2.25V40.3594H325.797V2.25H321.797ZM323.797 38.3594H231.828V42.3594H323.797V38.3594ZM229.828 40.3594V83.5312H233.828V40.3594H229.828ZM231.828 85.5312H309.453V81.5312H231.828V85.5312ZM307.453 83.5312V120.234H311.453V83.5312H307.453ZM392.984 137.531V135.531H390.984V137.531H392.984ZM392.984 207V209H394.984V207H392.984ZM343.625 207H341.625V209H343.625V207ZM343.625 2.25V0.25H341.625V2.25H343.625ZM466.812 10.9688L465.941 12.7687L465.949 12.7728L465.958 12.7768L466.812 10.9688ZM494.797 35.5781L493.093 36.6246L493.098 36.6334L493.103 36.6422L494.797 35.5781ZM483.266 119.672L484.548 121.207L484.549 121.206L483.266 119.672ZM392.984 99.4219H390.984V101.422H392.984V99.4219ZM447.125 92.25L445.752 90.796L445.745 90.8024L445.738 90.8089L447.125 92.25ZM425.891 40.3594L425.912 38.3595L425.901 38.3594H425.891V40.3594ZM392.984 40.3594V38.3594H390.984V40.3594H392.984ZM390.984 137.531V207H394.984V137.531H390.984ZM392.984 205H343.625V209H392.984V205ZM345.625 207V2.25H341.625V207H345.625ZM343.625 4.25H425.328V0.25H343.625V4.25ZM425.328 4.25C440.735 4.25 454.256 7.1089 465.941 12.7687L467.684 9.16879C455.369 3.2036 441.234 0.25 425.328 0.25V4.25ZM465.958 12.7768C477.725 18.3411 486.747 26.2905 493.093 36.6246L496.501 34.5316C489.722 23.4908 480.088 15.0339 467.667 9.16071L465.958 12.7768ZM493.103 36.6422C499.544 46.8919 502.781 58.5642 502.781 71.7188H506.781C506.781 57.8733 503.363 45.4518 496.49 34.5141L493.103 36.6422ZM502.781 71.7188C502.781 91.1411 495.838 106.546 481.982 118.138L484.549 121.206C499.381 108.797 506.781 92.2339 506.781 71.7188H502.781ZM481.983 118.137C468.2 129.653 449.115 135.531 424.484 135.531V139.531C449.729 139.531 469.831 133.503 484.548 121.207L481.983 118.137ZM424.484 135.531H392.984V139.531H424.484V135.531ZM392.984 101.422H425.328V97.4219H392.984V101.422ZM425.328 101.422C435.205 101.422 443.046 98.9503 448.512 93.6911L445.738 90.8089C441.266 95.1122 434.576 97.4219 425.328 97.4219V101.422ZM448.498 93.704C454.057 88.4542 456.719 81.1212 456.719 72H452.719C452.719 80.3163 450.318 86.4833 445.752 90.796L448.498 93.704ZM456.719 72C456.719 62.0675 454.032 53.9082 448.47 47.7389L445.499 50.4174C450.249 55.6856 452.719 62.8075 452.719 72H456.719ZM448.47 47.7389C442.879 41.5386 435.281 38.4581 425.912 38.3595L425.87 42.3593C434.313 42.4481 440.777 45.1802 445.499 50.4174L448.47 47.7389ZM425.891 38.3594H392.984V42.3594H425.891V38.3594ZM390.984 40.3594V99.4219H394.984V40.3594H390.984ZM658.203 120.234V122.234H660.203V120.234H658.203ZM580.578 120.234V118.234H578.578V120.234H580.578ZM580.578 169.031H578.578V171.031H580.578V169.031ZM672.266 169.031H674.266V167.031H672.266V169.031ZM672.266 207V209H674.266V207H672.266ZM531.219 207H529.219V209H531.219V207ZM531.219 2.25V0.25H529.219V2.25H531.219ZM672.547 2.25H674.547V0.25H672.547V2.25ZM672.547 40.3594V42.3594H674.547V40.3594H672.547ZM580.578 40.3594V38.3594H578.578V40.3594H580.578ZM580.578 83.5312H578.578V85.5312H580.578V83.5312ZM658.203 83.5312H660.203V81.5312H658.203V83.5312ZM658.203 118.234H580.578V122.234H658.203V118.234ZM578.578 120.234V169.031H582.578V120.234H578.578ZM580.578 171.031H672.266V167.031H580.578V171.031ZM670.266 169.031V207H674.266V169.031H670.266ZM672.266 205H531.219V209H672.266V205ZM533.219 207V2.25H529.219V207H533.219ZM531.219 4.25H672.547V0.25H531.219V4.25ZM670.547 2.25V40.3594H674.547V2.25H670.547ZM672.547 38.3594H580.578V42.3594H672.547V38.3594ZM578.578 40.3594V83.5312H582.578V40.3594H578.578ZM580.578 85.5312H658.203V81.5312H580.578V85.5312ZM656.203 83.5312V120.234H660.203V83.5312H656.203ZM830.469 40.3594V42.3594H832.469V40.3594H830.469ZM741.453 40.3594V38.3594H739.453V40.3594H741.453ZM741.453 207V209H743.453V207H741.453ZM692.094 207H690.094V209H692.094V207ZM692.094 2.25V0.25H690.094V2.25H692.094ZM830.469 2.25H832.469V0.25H830.469V2.25ZM830.469 38.3594H741.453V42.3594H830.469V38.3594ZM739.453 40.3594V207H743.453V40.3594H739.453ZM741.453 205H692.094V209H741.453V205ZM694.094 207V2.25H690.094V207H694.094ZM692.094 4.25H830.469V0.25H692.094V4.25ZM828.469 2.25V40.3594H832.469V2.25H828.469Z" fill="white"></path> </svg> 