<?xml version="1.0" encoding="UTF-8"?> <svg xmlns="http://www.w3.org/2000/svg" width="82" height="408" viewBox="0 0 82 408" fill="none"> <path d="M75.9393 145.529L38.7153 108.311L77.8923 69.13C83.1413 63.888 83.1413 55.363 77.8923 50.127L31.7033 3.937C29.1563 1.399 25.7862 0 22.1962 0C18.6052 0 15.2182 1.399 12.6842 3.937C7.43525 9.176 7.43525 17.701 12.6842 22.937L49.3682 59.625L10.2173 98.778C7.66625 101.316 6.29126 104.691 6.29126 108.282C6.29126 111.539 7.43626 114.62 9.54526 117.061L9.67226 117.292L47.4103 155.022L8.25426 194.174C5.34026 197.088 3.96426 201.158 4.45926 205.251C4.68826 208.453 6.08024 211.507 8.35824 213.774L45.0423 250.468L5.89125 289.618C0.87925 294.615 0.653255 302.605 5.20026 307.87L5.34625 308.132L43.0783 345.861L3.93225 385.007C-1.31075 390.261 -1.31075 398.786 3.93225 404.009C6.46925 406.554 9.84325 407.93 13.4342 407.93C17.0312 407.93 20.4122 406.534 22.9412 404.009L71.6083 355.358C74.1553 352.801 75.5402 349.432 75.5402 345.84C75.5402 342.249 74.1333 338.879 71.6083 336.338L34.3913 299.119L73.5662 259.939C78.8112 254.699 78.8112 246.173 73.5662 240.935L36.5263 203.898L75.9393 164.49C81.1573 159.296 81.1573 150.771 75.9393 145.529Z" fill="#61CBB8"></path> </svg> 