<?xml version="1.0" encoding="UTF-8"?> <svg xmlns="http://www.w3.org/2000/svg" width="2050" height="142" viewBox="0 0 2050 142" fill="none"> <path d="M82.96 3.44L88.864 3.29599C90.496 3.29599 93.76 3.05599 98.656 2.57599C103.648 1.99999 106.912 1.472 108.448 0.991996C109.984 0.415998 110.896 0.127998 111.184 0.127998C112.528 0.127998 113.2 0.991999 113.2 2.72C113.2 5.216 110.992 7.472 106.576 9.488C102.256 11.504 97.264 12.512 91.6 12.512C88.624 14.432 85.456 18.416 82.096 24.464C78.832 30.416 75.664 38.864 72.592 49.808C69.52 60.656 67.984 68.336 67.984 72.848C67.984 77.36 69.04 80.48 71.152 82.208C73.36 83.936 76.72 85.232 81.232 86.096L78.208 91.424C75.712 91.616 73.84 91.712 72.592 91.712C67.984 91.712 64.384 90.176 61.792 87.104C59.296 83.936 58.048 80.24 58.048 76.016C58.048 71.792 58.432 68.288 59.2 65.504C65.056 42.176 69.952 27.68 73.888 22.016C75.904 19.04 78.832 15.824 82.672 12.368L69.136 12.656C62.8 18.8 57.232 29.552 52.432 44.912C47.728 60.176 42.064 71.84 35.44 79.904C28.912 87.872 21.136 91.856 12.112 91.856C8.56 91.856 5.2 90.704 2.032 88.4L5.344 82.928C6.496 83.504 7.792 84.032 9.232 84.512L11.248 84.8C11.728 84.896 12.448 84.944 13.408 84.944C18.208 84.944 22.48 82.64 26.224 78.032C30.064 73.424 34.048 64.736 38.176 51.968C42.4 39.104 45.664 30.608 47.968 26.48C50.368 22.256 54.496 17.6 60.352 12.512C60.352 12.512 53.488 12.368 39.76 12.08C18.736 12.08 8.224 16.688 8.224 25.904C8.224 28.304 9.088 30.272 10.816 31.808C12.64 33.248 15.328 33.968 18.88 33.968C22.432 33.968 27.088 32.336 32.848 29.072L35.008 32.816C32.032 35.984 28.672 38.48 24.928 40.304C21.184 42.128 17.44 43.04 13.696 43.04C9.952 43.04 6.736 41.792 4.048 39.296C1.36 36.8 0.0160001 33.68 0.0160001 29.936C0.0160001 22.352 4.096 15.728 12.256 10.064C20.512 4.4 31.648 1.568 45.664 1.568C45.952 1.568 48.208 1.712 52.432 2C66.736 2.96 76.912 3.44 82.96 3.44ZM149.639 49.232C152.135 53.36 153.383 57.92 153.383 62.912C153.383 70.688 150.695 77.648 145.319 83.792C139.943 89.84 133.607 92.864 126.311 92.864C120.743 92.864 116.375 91.28 113.207 88.112C110.135 84.848 108.599 80.384 108.599 74.72C108.599 65.6 112.151 57.44 119.255 50.24C126.359 42.944 134.327 39.296 143.159 39.296C144.791 39.296 145.943 39.344 146.615 39.44L147.047 44.192C139.367 44.192 132.983 46.4 127.895 50.816C122.807 55.232 120.263 60.896 120.263 67.808C120.263 71.936 121.271 75.296 123.287 77.888C125.303 80.384 128.231 81.632 132.071 81.632C136.007 81.632 139.127 79.904 141.431 76.448C143.735 72.992 144.887 68.96 144.887 64.352C144.887 59.648 143.975 55.376 142.151 51.536L149.639 49.232ZM219.419 74.576L222.443 76.88C220.331 81.104 217.403 84.656 213.659 87.536C210.011 90.416 206.699 91.856 203.723 91.856C200.747 91.856 198.395 90.992 196.667 89.264C194.939 87.536 194.075 85.376 194.075 82.784C194.075 80.192 195.707 75.68 198.971 69.248C202.331 62.72 204.011 57.92 204.011 54.848C204.011 53.504 203.435 52.304 202.283 51.248C201.227 50.096 199.931 49.52 198.395 49.52C193.499 49.52 188.555 53.264 183.563 60.752C178.571 68.144 173.003 78.848 166.859 92.864L158.219 89.84C160.043 78.704 162.635 67.856 165.995 57.296C169.451 46.64 172.619 39.008 175.499 34.4L181.403 36.272C178.715 43.088 175.307 54.848 171.179 71.552C184.427 48.896 196.619 37.568 207.755 37.568C210.155 37.568 212.123 38.384 213.659 40.016C215.291 41.648 216.107 43.568 216.107 45.776C216.107 47.984 215.819 50 215.243 51.824C214.667 53.552 212.843 57.68 209.771 64.208C206.795 70.64 205.307 74.672 205.307 76.304C205.307 77.936 205.787 79.232 206.747 80.192C207.707 81.056 208.619 81.488 209.483 81.488C210.347 81.488 211.067 81.344 211.643 81.056C212.219 80.768 212.843 80.336 213.515 79.76C214.283 79.184 214.955 78.656 215.531 78.176C216.107 77.696 216.779 77.072 217.547 76.304C218.411 75.44 219.035 74.864 219.419 74.576ZM250.289 65.504C257.585 54.56 263.921 47.12 269.297 43.184C274.673 39.152 279.377 37.136 283.409 37.136C287.441 37.136 290.561 38.384 292.769 40.88C294.977 43.28 296.081 46.352 296.081 50.096C296.081 60.464 292.337 70.064 284.849 78.896C277.457 87.632 269.105 92 259.793 92C255.665 92 252.401 91.28 250.001 89.84L253.457 83.648C258.545 84.32 261.665 84.656 262.817 84.656C268.001 84.656 272.849 81.632 277.361 75.584C281.873 69.536 284.129 63.344 284.129 57.008C284.129 54.608 283.409 52.64 281.969 51.104C280.625 49.472 278.849 48.656 276.641 48.656C271.361 48.656 265.361 53.312 258.641 62.624C252.017 71.936 245.777 83.456 239.921 97.184C234.161 111.008 229.121 125.696 224.801 141.248L216.161 138.224C216.353 137.648 218.177 132.656 221.633 123.248C224.993 113.936 228.305 104.672 231.569 95.456C240.593 70.112 245.105 56.24 245.105 53.84C245.105 47.696 243.857 42.128 241.361 37.136L248.561 33.536C251.537 37.664 253.025 42.032 253.025 46.64C253.025 51.152 252.113 57.44 250.289 65.504ZM343.983 49.232C346.479 53.36 347.727 57.92 347.727 62.912C347.727 70.688 345.039 77.648 339.663 83.792C334.287 89.84 327.951 92.864 320.655 92.864C315.087 92.864 310.719 91.28 307.551 88.112C304.479 84.848 302.943 80.384 302.943 74.72C302.943 65.6 306.495 57.44 313.599 50.24C320.703 42.944 328.671 39.296 337.503 39.296C339.135 39.296 340.287 39.344 340.959 39.44L341.391 44.192C333.711 44.192 327.327 46.4 322.239 50.816C317.151 55.232 314.607 60.896 314.607 67.808C314.607 71.936 315.615 75.296 317.631 77.888C319.647 80.384 322.575 81.632 326.415 81.632C330.351 81.632 333.471 79.904 335.775 76.448C338.079 72.992 339.231 68.96 339.231 64.352C339.231 59.648 338.319 55.376 336.495 51.536L343.983 49.232ZM439.539 77.888C441.747 75.584 444.099 73.328 446.595 71.12C449.091 68.816 451.299 67.664 453.219 67.664C455.235 67.664 456.771 68.288 457.827 69.536C458.979 70.688 459.555 72.224 459.555 74.144C459.555 79.04 455.619 89.552 447.747 105.68L440.979 105.248C440.979 105.152 442.371 101.84 445.155 95.312C448.035 88.88 449.475 84.416 449.475 81.92C449.475 79.424 448.659 78.176 447.027 78.176C445.779 78.176 443.619 80.48 440.547 85.088C439.395 86.816 437.667 88.4 435.363 89.84C433.155 91.28 430.755 92 428.163 92C425.667 92 423.603 90.992 421.971 88.976C420.339 86.96 419.523 84.416 419.523 81.344C419.523 78.176 420.051 74.096 421.107 69.104C416.499 76.4 411.843 82.016 407.139 85.952C402.531 89.888 398.355 91.856 394.611 91.856C389.427 91.856 386.835 88.544 386.835 81.92C386.835 79.808 387.507 75.584 388.851 69.248C384.243 76.448 379.539 82.064 374.739 86.096C370.035 90.032 365.811 92 362.067 92C356.883 92 354.291 88.784 354.291 82.352C354.291 75.92 356.499 67.328 360.915 56.576C365.331 45.728 368.547 39.44 370.563 37.712L377.475 40.736C374.211 46.016 371.379 52.112 368.979 59.024C366.675 65.84 365.523 70.208 365.523 72.128C365.523 73.952 366.003 75.536 366.963 76.88C368.019 78.128 369.171 78.752 370.419 78.752C373.971 78.752 379.491 73.616 386.979 63.344C394.467 52.976 399.507 44.192 402.099 36.992L410.739 40.736C408.819 43.328 406.227 48.56 402.963 56.432C399.699 64.208 398.067 69.2 398.067 71.408C398.067 73.616 398.739 75.344 400.083 76.592C401.427 77.84 402.771 78.464 404.115 78.464C407.571 78.464 412.659 74.096 419.379 65.36C426.195 56.528 431.427 47.168 435.075 37.28L443.571 41.024C442.995 42.272 441.363 45.44 438.675 50.528C432.531 62.336 429.459 70.544 429.459 75.152C429.459 77.072 429.891 78.56 430.755 79.616C431.715 80.672 432.867 81.2 434.211 81.2C435.651 81.2 437.427 80.096 439.539 77.888ZM532.344 77.456L535.656 79.904C534.312 82.784 531.816 85.52 528.168 88.112C524.616 90.704 521.352 92 518.376 92C512.712 92 509.88 89.024 509.88 83.072C509.88 80.288 510.6 76.976 512.04 73.136L506.712 78.608C501.528 83.888 497.016 87.44 493.176 89.264C489.432 91.088 485.736 92 482.088 92C478.44 92 475.656 90.992 473.736 88.976C471.912 86.864 471 83.984 471 80.336C471 73.616 473.592 66.992 478.776 60.464C483.96 53.84 490.584 48.464 498.648 44.336C506.712 40.208 514.776 38.096 522.84 38L523.128 42.752L517.08 44.048C508.344 45.968 500.616 49.808 493.896 55.568C487.272 61.328 483.96 67.088 483.96 72.848C483.96 78.512 486.264 81.344 490.872 81.344C495.192 81.344 500.52 78.32 506.856 72.272C513.192 66.224 518.472 59.12 522.696 50.96L528.744 54.56C522.792 66.56 519.816 74.192 519.816 77.456C519.816 78.8 520.248 79.952 521.112 80.912C522.072 81.776 522.984 82.208 523.848 82.208C524.808 82.208 525.432 82.16 525.72 82.064C526.008 81.968 526.296 81.872 526.584 81.776C526.872 81.584 527.208 81.344 527.592 81.056C528.072 80.768 528.456 80.48 528.744 80.192C529.128 79.904 529.704 79.472 530.472 78.896C531.24 78.32 531.864 77.84 532.344 77.456ZM599.629 75.152L602.653 77.6C601.021 81.632 598.429 85.04 594.877 87.824C591.421 90.608 588.253 92 585.373 92C582.589 92 580.381 91.04 578.749 89.12C577.117 87.104 576.301 84.512 576.301 81.344C576.301 78.176 576.829 74.096 577.885 69.104C573.373 76.208 568.525 81.776 563.341 85.808C558.157 89.84 553.789 91.856 550.237 91.856C544.861 91.856 542.173 88.64 542.173 82.208C542.173 75.776 544.381 67.136 548.797 56.288C553.309 45.344 556.525 39.104 558.445 37.568L565.357 40.592C561.421 46.928 558.445 53.168 556.429 59.312C554.413 65.456 553.405 69.584 553.405 71.696C553.405 73.712 554.029 75.344 555.277 76.592C556.621 77.84 558.157 78.464 559.885 78.464C563.725 78.464 568.477 74.96 574.141 67.952C579.901 60.848 585.757 50.288 591.709 36.272L599.053 39.584C598.861 40.352 596.653 45.92 592.429 56.288C588.301 66.656 586.237 72.896 586.237 75.008C586.237 77.024 586.669 78.56 587.533 79.616C588.493 80.672 589.405 81.2 590.269 81.2C591.229 81.2 591.949 81.152 592.429 81.056C592.909 80.96 593.389 80.768 593.869 80.48C594.349 80.192 594.733 79.952 595.021 79.76C595.405 79.568 595.837 79.232 596.317 78.752L597.469 77.6C597.661 77.408 597.997 77.024 598.477 76.448C599.053 75.776 599.437 75.344 599.629 75.152ZM591.277 20.288L595.597 22.592C593.677 25.568 591.181 28.208 588.109 30.512C585.133 32.816 582.157 33.968 579.181 33.968C576.205 33.968 573.085 32.864 569.821 30.656C566.557 28.352 563.917 26.048 561.901 23.744L566.509 19.856C571.501 24.752 575.581 27.2 578.749 27.2C583.645 27.2 587.821 24.896 591.277 20.288ZM652.045 71.552L655.501 74.432C653.197 79.712 649.501 83.936 644.413 87.104C639.325 90.272 634.381 91.856 629.581 91.856C624.877 91.856 620.941 90.368 617.773 87.392C614.701 84.416 613.165 80.336 613.165 75.152C613.165 69.968 615.421 64.352 619.933 58.304C624.445 52.256 630.253 47.264 637.357 43.328C644.557 39.392 651.613 37.424 658.525 37.424C659.485 37.424 660.925 37.52 662.845 37.712L662.413 43.328C651.853 43.808 643.069 47.024 636.061 52.976C629.149 58.928 625.693 65.264 625.693 71.984C625.693 74.768 626.557 77.024 628.285 78.752C630.013 80.48 632.269 81.344 635.053 81.344C639.469 81.344 645.133 78.08 652.045 71.552ZM661.419 81.2L666.747 78.32C667.035 78.704 667.419 79.568 667.899 80.912C668.859 83.984 670.107 85.52 671.643 85.52C675.003 85.328 678.171 83.792 681.147 80.912C684.219 78.032 686.043 75.008 686.619 71.84C683.547 72.416 681.051 72.704 679.131 72.704C677.211 72.704 675.435 72.608 673.803 72.416C672.267 72.128 670.683 71.648 669.051 70.976C665.595 69.632 663.867 66.272 663.867 60.896C663.867 55.424 666.699 49.76 672.363 43.904C678.027 38.048 684.651 35.12 692.235 35.12C696.267 35.12 699.339 36.56 701.451 39.44C703.563 42.32 704.619 47.36 704.619 54.56C704.619 57.056 704.283 60.848 703.611 65.936C707.931 55.664 710.187 45.872 710.379 36.56L719.307 38.144C719.307 44.864 717.195 55.04 712.971 68.672C708.843 82.304 705.579 90.992 703.179 94.736L694.107 93.008C696.987 85.52 698.427 77.168 698.427 67.952C698.427 58.736 697.755 52.688 696.411 49.808C694.971 46.64 692.571 45.056 689.211 45.056C685.947 45.056 682.779 46.16 679.707 48.368C676.731 50.576 675.195 53.168 675.099 56.144C675.003 59.12 676.059 61.424 678.267 63.056C680.571 64.592 683.067 65.6 685.755 66.08C693.051 67.52 696.699 69.344 696.699 71.552C696.699 73.376 694.923 76.256 691.371 80.192C687.819 84.128 683.691 87.776 678.987 91.136C674.379 94.4 670.827 96.032 668.331 96.032C665.931 96.032 664.107 94.88 662.859 92.576C661.707 90.368 661.131 88.304 661.131 86.384C661.131 84.464 661.227 82.736 661.419 81.2ZM837.107 71.552L840.563 74.432C838.259 79.712 834.563 83.936 829.475 87.104C824.387 90.272 819.443 91.856 814.643 91.856C809.939 91.856 806.003 90.368 802.835 87.392C799.763 84.416 798.227 80.336 798.227 75.152C798.227 69.968 800.483 64.352 804.995 58.304C809.507 52.256 815.315 47.264 822.419 43.328C829.619 39.392 836.675 37.424 843.587 37.424C844.547 37.424 845.987 37.52 847.907 37.712L847.475 43.328C836.915 43.808 828.131 47.024 821.123 52.976C814.211 58.928 810.755 65.264 810.755 71.984C810.755 74.768 811.619 77.024 813.347 78.752C815.075 80.48 817.331 81.344 820.115 81.344C824.531 81.344 830.195 78.08 837.107 71.552ZM983.013 74.576L986.037 76.88C983.925 81.104 980.997 84.656 977.253 87.536C973.605 90.416 970.293 91.856 967.317 91.856C964.341 91.856 961.989 90.992 960.261 89.264C958.533 87.536 957.669 85.376 957.669 82.784C957.669 80.192 959.301 75.68 962.565 69.248C965.925 62.72 967.605 57.92 967.605 54.848C967.605 53.504 967.029 52.304 965.877 51.248C964.821 50.096 963.525 49.52 961.989 49.52C957.093 49.52 952.149 53.264 947.157 60.752C942.165 68.144 936.597 78.848 930.453 92.864L921.813 89.84C923.637 78.704 926.229 67.856 929.589 57.296C933.045 46.64 936.213 39.008 939.093 34.4L944.997 36.272C942.309 43.088 938.901 54.848 934.773 71.552C948.021 48.896 960.213 37.568 971.349 37.568C973.749 37.568 975.717 38.384 977.253 40.016C978.885 41.648 979.701 43.568 979.701 45.776C979.701 47.984 979.413 50 978.837 51.824C978.261 53.552 976.437 57.68 973.365 64.208C970.389 70.64 968.901 74.672 968.901 76.304C968.901 77.936 969.381 79.232 970.341 80.192C971.301 81.056 972.213 81.488 973.077 81.488C973.941 81.488 974.661 81.344 975.237 81.056C975.813 80.768 976.437 80.336 977.109 79.76C977.877 79.184 978.549 78.656 979.125 78.176C979.701 77.696 980.373 77.072 981.141 76.304C982.005 75.44 982.629 74.864 983.013 74.576ZM998.907 79.328L1006.11 75.728C1006.11 77.456 1006.73 78.944 1007.98 80.192C1009.32 81.44 1010.86 82.064 1012.59 82.064C1020.75 82.064 1030.06 71.312 1040.52 49.808C1041.1 48.56 1041.77 47.168 1042.54 45.632C1043.31 44 1043.88 42.8 1044.27 42.032C1044.65 41.168 1045.08 40.208 1045.56 39.152C1046.14 38.096 1046.57 37.328 1046.86 36.848C1047.24 36.272 1047.63 35.744 1048.01 35.264C1048.87 34.4 1049.83 33.968 1050.89 33.968C1052.04 33.968 1053.05 34.496 1053.91 35.552C1054.78 36.608 1055.21 37.856 1055.21 39.296C1055.21 40.64 1053.39 46.592 1049.74 57.152C1046.19 67.616 1044.41 73.952 1044.41 76.16C1044.41 78.368 1044.84 80 1045.71 81.056C1046.67 82.112 1047.58 82.64 1048.44 82.64C1049.4 82.64 1050.12 82.592 1050.6 82.496C1051.08 82.4 1051.56 82.208 1052.04 81.92C1052.52 81.632 1052.91 81.392 1053.19 81.2C1053.58 81.008 1054.01 80.672 1054.49 80.192L1055.5 79.04C1055.79 78.848 1056.17 78.464 1056.65 77.888C1057.23 77.216 1057.61 76.784 1057.8 76.592L1060.83 79.04C1059.19 83.072 1056.6 86.48 1053.05 89.264C1049.59 92.048 1046.43 93.44 1043.55 93.44C1040.76 93.44 1038.55 92.48 1036.92 90.56C1035.29 88.544 1034.47 85.952 1034.47 82.784C1034.47 79.616 1035 75.536 1036.06 70.544C1031.64 77.456 1026.79 82.736 1021.51 86.384C1016.23 89.936 1011.96 91.712 1008.7 91.712C1005.43 91.712 1002.99 90.512 1001.35 88.112C999.723 85.712 998.907 82.784 998.907 79.328ZM1116.44 49.232C1118.93 53.36 1120.18 57.92 1120.18 62.912C1120.18 70.688 1117.49 77.648 1112.12 83.792C1106.74 89.84 1100.4 92.864 1093.11 92.864C1087.54 92.864 1083.17 91.28 1080 88.112C1076.93 84.848 1075.4 80.384 1075.4 74.72C1075.4 65.6 1078.95 57.44 1086.05 50.24C1093.16 42.944 1101.12 39.296 1109.96 39.296C1111.59 39.296 1112.74 39.344 1113.41 39.44L1113.84 44.192C1106.16 44.192 1099.78 46.4 1094.69 50.816C1089.6 55.232 1087.06 60.896 1087.06 67.808C1087.06 71.936 1088.07 75.296 1090.08 77.888C1092.1 80.384 1095.03 81.632 1098.87 81.632C1102.8 81.632 1105.92 79.904 1108.23 76.448C1110.53 72.992 1111.68 68.96 1111.68 64.352C1111.68 59.648 1110.77 55.376 1108.95 51.536L1116.44 49.232ZM1145.64 67.952C1139.97 73.04 1132.34 81.344 1122.74 92.864L1118.71 89.552C1120.53 85.136 1128.36 75.92 1142.18 61.904C1138.53 53.072 1136.52 45.824 1136.13 40.16L1145.64 38.432C1146.12 39.104 1147.99 44.912 1151.25 55.856C1163.35 47.216 1171.94 41.696 1177.03 39.296L1179.76 43.184C1178.13 44.528 1175.25 46.592 1171.12 49.376C1160.08 56.864 1154.28 60.896 1153.7 61.472C1158.88 72.512 1165.08 82.016 1172.28 89.984L1165.51 94.304C1157.64 88.544 1151.01 79.76 1145.64 67.952ZM1245.41 75.152L1248.43 77.6C1246.8 81.632 1244.21 85.04 1240.66 87.824C1237.2 90.608 1234.03 92 1231.15 92C1228.37 92 1226.16 91.04 1224.53 89.12C1222.9 87.104 1222.08 84.512 1222.08 81.344C1222.08 78.176 1222.61 74.096 1223.67 69.104C1219.15 76.208 1214.31 81.776 1209.12 85.808C1203.94 89.84 1199.57 91.856 1196.02 91.856C1190.64 91.856 1187.95 88.64 1187.95 82.208C1187.95 75.776 1190.16 67.136 1194.58 56.288C1199.09 45.344 1202.31 39.104 1204.23 37.568L1211.14 40.592C1207.2 46.928 1204.23 53.168 1202.21 59.312C1200.19 65.456 1199.19 69.584 1199.19 71.696C1199.19 73.712 1199.81 75.344 1201.06 76.592C1202.4 77.84 1203.94 78.464 1205.67 78.464C1209.51 78.464 1214.26 74.96 1219.92 67.952C1225.68 60.848 1231.54 50.288 1237.49 36.272L1244.83 39.584C1244.64 40.352 1242.43 45.92 1238.21 56.288C1234.08 66.656 1232.02 72.896 1232.02 75.008C1232.02 77.024 1232.45 78.56 1233.31 79.616C1234.27 80.672 1235.19 81.2 1236.05 81.2C1237.01 81.2 1237.73 81.152 1238.21 81.056C1238.69 80.96 1239.17 80.768 1239.65 80.48C1240.13 80.192 1240.51 79.952 1240.8 79.76C1241.19 79.568 1241.62 79.232 1242.1 78.752L1243.11 77.6C1243.39 77.408 1243.78 77.024 1244.26 76.448C1244.83 75.776 1245.22 75.344 1245.41 75.152ZM1345.63 75.296L1348.66 77.744C1347.03 81.776 1344.43 85.184 1340.88 87.968C1337.43 90.752 1334.26 92.144 1331.38 92.144C1328.59 92.144 1326.39 91.184 1324.75 89.264C1323.12 87.248 1322.31 84.656 1322.31 81.488C1322.31 78.32 1322.83 74.24 1323.89 69.248C1319.38 76.352 1314.53 81.92 1309.35 85.952C1304.16 89.984 1299.79 92 1296.24 92C1290.87 92 1288.18 88.592 1288.18 81.776C1288.18 81.104 1288.85 76.976 1290.19 69.392C1285.68 76.4 1281.12 81.68 1276.51 85.232C1272 88.688 1267.92 90.416 1264.27 90.416C1258.9 90.416 1256.21 87.008 1256.21 80.192L1261.68 75.008C1261.68 76.736 1262.31 78.224 1263.55 79.472C1264.9 80.72 1266.43 81.344 1268.16 81.344C1271.33 81.344 1275.6 78.656 1280.98 73.28C1286.45 67.904 1291.44 60.848 1295.95 52.112C1296.91 50.192 1298.02 47.936 1299.27 45.344C1300.61 42.656 1301.57 40.736 1302.15 39.584C1302.72 38.432 1303.39 37.184 1304.16 35.84C1305.41 33.728 1306.71 32.672 1308.05 32.672C1309.39 32.672 1310.5 33.2 1311.36 34.256C1312.23 35.312 1312.66 36.56 1312.66 38C1312.66 39.344 1312.23 40.928 1311.36 42.752C1310.59 44.576 1309.3 47.072 1307.47 50.24C1305.65 53.312 1304.21 55.856 1303.15 57.872C1300.66 64.4 1299.41 68.864 1299.41 71.264C1299.41 73.664 1300.03 75.488 1301.28 76.736C1302.63 77.984 1304.16 78.608 1305.89 78.608C1309.15 78.608 1313.04 76.112 1317.55 71.12C1322.16 66.032 1326.91 58.496 1331.81 48.512C1332.39 47.264 1333.06 45.872 1333.83 44.336C1334.59 42.704 1335.17 41.504 1335.55 40.736C1335.94 39.872 1336.37 38.912 1336.85 37.856C1337.43 36.8 1337.86 36.032 1338.15 35.552C1338.53 34.976 1338.91 34.448 1339.3 33.968C1340.16 33.104 1341.12 32.672 1342.18 32.672C1343.33 32.672 1344.34 33.2 1345.2 34.256C1346.07 35.312 1346.5 36.56 1346.5 38C1346.5 39.344 1344.1 45.296 1339.3 55.856C1334.59 66.32 1332.24 72.656 1332.24 74.864C1332.24 77.072 1332.67 78.704 1333.54 79.76C1334.5 80.816 1335.41 81.344 1336.27 81.344C1337.23 81.344 1337.95 81.296 1338.43 81.2C1338.91 81.104 1339.39 80.912 1339.87 80.624C1340.35 80.336 1340.74 80.096 1341.03 79.904C1341.41 79.712 1341.84 79.376 1342.32 78.896L1343.33 77.888C1343.62 77.6 1344 77.168 1344.48 76.592C1345.06 75.92 1345.44 75.488 1345.63 75.296ZM1479.95 42.896C1479.95 49.904 1473.51 55.712 1460.65 60.32C1464.11 62.432 1466.65 64.352 1468.28 66.08C1470.01 67.712 1470.87 69.584 1470.87 71.696C1470.87 77.072 1467.85 81.824 1461.8 85.952C1455.75 89.984 1449.27 92 1442.36 92C1439 92 1435.64 91.472 1432.28 90.416C1428.92 89.36 1426.62 88.064 1425.37 86.528L1430.84 81.488C1431.99 82.64 1433.53 83.648 1435.45 84.512C1437.47 85.376 1439.15 85.808 1440.49 85.808C1445.29 85.808 1449.66 84.608 1453.59 82.208C1457.63 79.712 1459.64 76.688 1459.64 73.136C1459.64 71.216 1458.92 69.632 1457.48 68.384C1456.04 67.04 1454.46 66.128 1452.73 65.648C1451.1 65.072 1449.56 64.4 1448.12 63.632C1446.68 62.768 1445.96 61.808 1445.96 60.752C1445.96 59.696 1447.07 58.736 1449.27 57.872C1451.58 56.912 1454.12 56.144 1456.91 55.568C1459.69 54.896 1462.19 53.84 1464.39 52.4C1466.7 50.864 1467.85 49.184 1467.85 47.36C1467.85 45.536 1467.23 44.096 1465.98 43.04C1464.73 41.984 1463.15 41.456 1461.23 41.456C1459.4 41.456 1456.52 42.464 1452.59 44.48C1448.65 46.496 1444.67 49.088 1440.63 52.256L1438.62 48.224C1442.07 44.192 1446.73 40.64 1452.59 37.568C1458.54 34.4 1463.29 32.816 1466.84 32.816C1470.49 32.816 1473.56 33.824 1476.06 35.84C1478.65 37.76 1479.95 40.112 1479.95 42.896ZM1506.49 65.504C1513.79 54.56 1520.12 47.12 1525.5 43.184C1530.88 39.152 1535.58 37.136 1539.61 37.136C1543.64 37.136 1546.76 38.384 1548.97 40.88C1551.18 43.28 1552.28 46.352 1552.28 50.096C1552.28 60.464 1548.54 70.064 1541.05 78.896C1533.66 87.632 1525.31 92 1516 92C1511.87 92 1508.6 91.28 1506.2 89.84L1509.66 83.648C1514.75 84.32 1517.87 84.656 1519.02 84.656C1524.2 84.656 1529.05 81.632 1533.56 75.584C1538.08 69.536 1540.33 63.344 1540.33 57.008C1540.33 54.608 1539.61 52.64 1538.17 51.104C1536.83 49.472 1535.05 48.656 1532.84 48.656C1527.56 48.656 1521.56 53.312 1514.84 62.624C1508.22 71.936 1501.98 83.456 1496.12 97.184C1490.36 111.008 1485.32 125.696 1481 141.248L1472.36 138.224C1472.56 137.648 1474.38 132.656 1477.84 123.248C1481.2 113.936 1484.51 104.672 1487.77 95.456C1496.8 70.112 1501.31 56.24 1501.31 53.84C1501.31 47.696 1500.06 42.128 1497.56 37.136L1504.76 33.536C1507.74 37.664 1509.23 42.032 1509.23 46.64C1509.23 51.152 1508.32 57.44 1506.49 65.504ZM1599.47 75.008L1602.78 77.6C1599.8 81.728 1595.72 85.184 1590.54 87.968C1585.35 90.656 1580.31 92 1575.42 92C1570.52 92 1566.59 90.56 1563.61 87.68C1560.63 84.8 1559.15 81.008 1559.15 76.304C1559.15 67.472 1563.8 58.784 1573.11 50.24C1582.52 41.696 1592.03 37.424 1601.63 37.424C1607.96 37.424 1611.13 39.92 1611.13 44.912C1611.13 50.096 1607.77 55.328 1601.05 60.608C1594.43 65.888 1585.07 70.688 1572.97 75.008C1573.83 77.216 1575.18 78.944 1577 80.192C1578.83 81.44 1580.7 82.064 1582.62 82.064C1586.75 82.064 1592.36 79.712 1599.47 75.008ZM1572.25 70.688C1580.03 68 1586.7 64.64 1592.27 60.608C1597.83 56.576 1600.62 52.88 1600.62 49.52C1600.62 48.272 1600.14 47.168 1599.18 46.208C1598.22 45.248 1597.11 44.768 1595.87 44.768C1591.35 44.768 1586.46 47.6 1581.18 53.264C1575.99 58.832 1573.02 64.64 1572.25 70.688ZM1674.97 35.984L1680.59 37.28C1680.49 37.952 1679.1 40.88 1676.41 46.064C1673.82 51.152 1671.04 57.872 1668.06 66.224C1665.09 74.48 1663.17 82.832 1662.3 91.28L1653.09 90.56C1653.09 85.28 1654.77 78.464 1658.13 70.112C1657.26 70.016 1655.49 69.968 1652.8 69.968C1650.21 69.968 1645.41 70.592 1638.4 71.84C1633.5 82.784 1631.05 92.144 1631.05 99.92L1621.41 98.624C1621.41 91.808 1623.95 83.408 1629.04 73.424C1624.14 74.192 1619.25 75.344 1614.35 76.88L1612.91 71.264C1612.91 70.976 1615.45 70.16 1620.54 68.816C1625.73 67.472 1629.57 66.608 1632.06 66.224C1639.74 48.56 1644.97 38.336 1647.76 35.552L1653.95 38C1653.47 38.96 1652.37 41.12 1650.64 44.48C1646.32 52.832 1643.39 59.36 1641.85 64.064C1650.21 63.2 1655.2 62.768 1656.83 62.768C1658.56 62.768 1660 62.816 1661.15 62.912C1667.87 47.456 1672.48 38.48 1674.97 35.984ZM1747.02 75.152L1750.04 77.6C1748.41 81.632 1745.82 85.04 1742.27 87.824C1738.81 90.608 1735.64 92 1732.76 92C1729.98 92 1727.77 91.04 1726.14 89.12C1724.51 87.104 1723.69 84.512 1723.69 81.344C1723.69 78.176 1724.22 74.096 1725.27 69.104C1720.76 76.208 1715.91 81.776 1710.73 85.808C1705.55 89.84 1701.18 91.856 1697.63 91.856C1692.25 91.856 1689.56 88.64 1689.56 82.208C1689.56 75.776 1691.77 67.136 1696.19 56.288C1700.7 45.344 1703.91 39.104 1705.83 37.568L1712.75 40.592C1708.81 46.928 1705.83 53.168 1703.82 59.312C1701.8 65.456 1700.79 69.584 1700.79 71.696C1700.79 73.712 1701.42 75.344 1702.67 76.592C1704.01 77.84 1705.55 78.464 1707.27 78.464C1711.11 78.464 1715.87 74.96 1721.53 67.952C1727.29 60.848 1733.15 50.288 1739.1 36.272L1746.44 39.584C1746.25 40.352 1744.04 45.92 1739.82 56.288C1735.69 66.656 1733.63 72.896 1733.63 75.008C1733.63 77.024 1734.06 78.56 1734.92 79.616C1735.88 80.672 1736.79 81.2 1737.66 81.2C1738.62 81.2 1739.34 81.152 1739.82 81.056C1740.3 80.96 1740.78 80.768 1741.26 80.48C1741.74 80.192 1742.12 79.952 1742.41 79.76C1742.79 79.568 1743.23 79.232 1743.71 78.752L1744.71 77.6C1745 77.408 1745.39 77.024 1745.87 76.448C1746.44 75.776 1746.83 75.344 1747.02 75.152ZM1799.43 75.008L1802.75 77.6C1799.77 81.728 1795.69 85.184 1790.51 87.968C1785.32 90.656 1780.28 92 1775.39 92C1770.49 92 1766.55 90.56 1763.58 87.68C1760.6 84.8 1759.11 81.008 1759.11 76.304C1759.11 67.472 1763.77 58.784 1773.08 50.24C1782.49 41.696 1791.99 37.424 1801.59 37.424C1807.93 37.424 1811.1 39.92 1811.1 44.912C1811.1 50.096 1807.74 55.328 1801.02 60.608C1794.39 65.888 1785.03 70.688 1772.94 75.008C1773.8 77.216 1775.15 78.944 1776.97 80.192C1778.79 81.44 1780.67 82.064 1782.59 82.064C1786.71 82.064 1792.33 79.712 1799.43 75.008ZM1772.22 70.688C1779.99 68 1786.67 64.64 1792.23 60.608C1797.8 56.576 1800.59 52.88 1800.59 49.52C1800.59 48.272 1800.11 47.168 1799.15 46.208C1798.19 45.248 1797.08 44.768 1795.83 44.768C1791.32 44.768 1786.43 47.6 1781.15 53.264C1775.96 58.832 1772.99 64.64 1772.22 70.688ZM1905.04 75.296L1908.06 77.744C1906.43 81.776 1903.84 85.184 1900.29 87.968C1896.83 90.752 1893.66 92.144 1890.78 92.144C1888 92.144 1885.79 91.184 1884.16 89.264C1882.53 87.248 1881.71 84.656 1881.71 81.488C1881.71 78.32 1882.24 74.24 1883.3 69.248C1878.78 76.352 1873.94 81.92 1868.75 85.952C1863.57 89.984 1859.2 92 1855.65 92C1850.27 92 1847.58 88.592 1847.58 81.776C1847.58 81.104 1848.26 76.976 1849.6 69.392C1845.09 76.4 1840.53 81.68 1835.92 85.232C1831.41 88.688 1827.33 90.416 1823.68 90.416C1818.3 90.416 1815.62 87.008 1815.62 80.192L1821.09 75.008C1821.09 76.736 1821.71 78.224 1822.96 79.472C1824.3 80.72 1825.84 81.344 1827.57 81.344C1830.74 81.344 1835.01 78.656 1840.38 73.28C1845.86 67.904 1850.85 60.848 1855.36 52.112C1856.32 50.192 1857.42 47.936 1858.67 45.344C1860.02 42.656 1860.98 40.736 1861.55 39.584C1862.13 38.432 1862.8 37.184 1863.57 35.84C1864.82 33.728 1866.11 32.672 1867.46 32.672C1868.8 32.672 1869.9 33.2 1870.77 34.256C1871.63 35.312 1872.06 36.56 1872.06 38C1872.06 39.344 1871.63 40.928 1870.77 42.752C1870 44.576 1868.7 47.072 1866.88 50.24C1865.06 53.312 1863.62 55.856 1862.56 57.872C1860.06 64.4 1858.82 68.864 1858.82 71.264C1858.82 73.664 1859.44 75.488 1860.69 76.736C1862.03 77.984 1863.57 78.608 1865.3 78.608C1868.56 78.608 1872.45 76.112 1876.96 71.12C1881.57 66.032 1886.32 58.496 1891.22 48.512C1891.79 47.264 1892.46 45.872 1893.23 44.336C1894 42.704 1894.58 41.504 1894.96 40.736C1895.34 39.872 1895.78 38.912 1896.26 37.856C1896.83 36.8 1897.26 36.032 1897.55 35.552C1897.94 34.976 1898.32 34.448 1898.7 33.968C1899.57 33.104 1900.53 32.672 1901.58 32.672C1902.74 32.672 1903.74 33.2 1904.61 34.256C1905.47 35.312 1905.9 36.56 1905.9 38C1905.9 39.344 1903.5 45.296 1898.7 55.856C1894 66.32 1891.65 72.656 1891.65 74.864C1891.65 77.072 1892.08 78.704 1892.94 79.76C1893.9 80.816 1894.82 81.344 1895.68 81.344C1896.64 81.344 1897.36 81.296 1897.84 81.2C1898.32 81.104 1898.8 80.912 1899.28 80.624C1899.76 80.336 1900.14 80.096 1900.43 79.904C1900.82 79.712 1901.25 79.376 1901.73 78.896L1902.74 77.888C1903.02 77.6 1903.41 77.168 1903.89 76.592C1904.46 75.92 1904.85 75.488 1905.04 75.296ZM2046.41 75.152L2049.43 77.6C2047.8 81.632 2045.21 85.04 2041.66 87.824C2038.2 90.608 2035.03 92 2032.15 92C2029.37 92 2027.16 91.04 2025.53 89.12C2023.9 87.104 2023.08 84.512 2023.08 81.344C2023.08 78.176 2023.61 74.096 2024.67 69.104C2020.15 76.208 2015.31 81.776 2010.12 85.808C2004.94 89.84 2000.57 91.856 1997.02 91.856C1991.64 91.856 1988.95 88.64 1988.95 82.208C1988.95 75.776 1991.16 67.136 1995.58 56.288C2000.09 45.344 2003.31 39.104 2005.23 37.568L2012.14 40.592C2008.2 46.928 2005.23 53.168 2003.21 59.312C2001.19 65.456 2000.19 69.584 2000.19 71.696C2000.19 73.712 2000.81 75.344 2002.06 76.592C2003.4 77.84 2004.94 78.464 2006.67 78.464C2010.51 78.464 2015.26 74.96 2020.92 67.952C2026.68 60.848 2032.54 50.288 2038.49 36.272L2045.83 39.584C2045.64 40.352 2043.43 45.92 2039.21 56.288C2035.08 66.656 2033.02 72.896 2033.02 75.008C2033.02 77.024 2033.45 78.56 2034.31 79.616C2035.27 80.672 2036.19 81.2 2037.05 81.2C2038.01 81.2 2038.73 81.152 2039.21 81.056C2039.69 80.96 2040.17 80.768 2040.65 80.48C2041.13 80.192 2041.51 79.952 2041.8 79.76C2042.19 79.568 2042.62 79.232 2043.1 78.752L2044.11 77.6C2044.39 77.408 2044.78 77.024 2045.26 76.448C2045.83 75.776 2046.22 75.344 2046.41 75.152Z" fill="white"></path> </svg> 