<?xml version="1.0" encoding="UTF-8"?> <svg xmlns="http://www.w3.org/2000/svg" width="2117" height="152" viewBox="0 0 2117 152" fill="none"> <path d="M62.064 90.928L62.496 94.672C62.112 94.96 57.648 96.688 49.104 99.856C47.952 106.192 46.464 112.432 44.64 118.576C42.912 124.816 41.136 129.52 39.312 132.688C37.584 135.952 35.52 139.168 33.12 142.336C28.32 148.672 21.84 151.84 13.68 151.84C9.648 151.84 6.432 150.592 4.032 148.096C1.632 145.6 0.432 142.192 0.432 137.872C0.432 121.264 14.352 107.92 42.192 97.84L49.968 70.48C41.712 82.864 34.272 90.496 27.648 93.376C24.384 94.912 20.928 95.68 17.28 95.68C13.728 95.68 10.848 94.528 8.64 92.224C6.528 89.92 5.472 86.56 5.472 82.144C5.472 77.728 6.96 71.584 9.936 63.712C13.008 55.744 16.416 49.072 20.16 43.696L27.216 46.72C26.928 47.008 25.584 49.552 23.184 54.352C18.96 63.088 16.848 69.568 16.848 73.792C16.848 78.016 17.664 80.848 19.296 82.288C20.928 83.728 23.328 84.448 26.496 84.448C29.664 84.448 33.216 82.576 37.152 78.832C41.184 74.992 47.376 67.456 55.728 56.224L60.912 59.248C60.144 62.416 58.416 68.176 55.728 76.528C53.136 84.784 51.36 91.12 50.4 95.536L62.064 90.928ZM41.328 102.16C35.28 104.944 29.952 108.112 25.344 111.664C16.704 118.192 12.384 124.528 12.384 130.672C12.384 132.976 13.056 134.848 14.4 136.288C15.744 137.728 17.424 138.448 19.44 138.448C29.04 138.448 36.336 126.352 41.328 102.16ZM116.309 83.44L120.341 86.464C119.381 88.48 117.317 90.784 114.149 93.376C111.077 95.968 107.477 97.264 103.349 97.264C97.7813 97.264 94.9973 94.432 94.9973 88.768C94.9973 85.504 95.6693 81.904 97.0133 77.968C98.4533 73.936 99.8453 70.288 101.189 67.024C102.533 63.664 103.349 61.552 103.637 60.688C101.333 63.952 97.5893 67.36 92.4053 70.912C87.3173 74.368 82.6613 76.096 78.4373 76.096C72.1973 76.096 69.0773 72.544 69.0773 65.44C69.0773 60.832 70.3253 55.744 72.8213 50.176C75.4133 44.608 78.1013 40.72 80.8853 38.512L87.2213 40.816C82.7093 49.168 80.4533 55.36 80.4533 59.392C80.4533 63.424 82.3253 65.44 86.0693 65.44C90.3893 65.44 95.3333 63.04 100.901 58.24C106.469 53.44 110.405 47.44 112.709 40.24L120.197 44.416C109.829 62.752 104.645 75.472 104.645 82.576C104.645 85.84 105.893 87.472 108.389 87.472C110.981 87.472 113.621 86.128 116.309 83.44ZM186.156 85.456L189.468 87.904C188.124 90.784 185.628 93.52 181.98 96.112C178.428 98.704 175.164 100 172.188 100C166.524 100 163.692 97.024 163.692 91.072C163.692 88.288 164.412 84.976 165.852 81.136L160.524 86.608C155.34 91.888 150.828 95.44 146.988 97.264C143.244 99.088 139.548 100 135.9 100C132.252 100 129.468 98.992 127.548 96.976C125.724 94.864 124.812 91.984 124.812 88.336C124.812 81.616 127.404 74.992 132.588 68.464C137.772 61.84 144.396 56.464 152.46 52.336C160.524 48.208 168.588 46.096 176.652 46L176.94 50.752L170.892 52.048C162.156 53.968 154.428 57.808 147.708 63.568C141.084 69.328 137.772 75.088 137.772 80.848C137.772 86.512 140.076 89.344 144.684 89.344C149.004 89.344 154.332 86.32 160.668 80.272C167.004 74.224 172.284 67.12 176.508 58.96L182.556 62.56C176.604 74.56 173.628 82.192 173.628 85.456C173.628 86.8 174.06 87.952 174.924 88.912C175.884 89.776 176.796 90.208 177.66 90.208C178.62 90.208 179.244 90.16 179.532 90.064C179.82 89.968 180.108 89.872 180.396 89.776C180.684 89.584 181.02 89.344 181.404 89.056C181.884 88.768 182.268 88.48 182.556 88.192C182.94 87.904 183.516 87.472 184.284 86.896C185.052 86.32 185.676 85.84 186.156 85.456ZM233.857 79.552L237.313 82.432C235.009 87.712 231.313 91.936 226.225 95.104C221.137 98.272 216.193 99.856 211.393 99.856C206.689 99.856 202.753 98.368 199.585 95.392C196.513 92.416 194.977 88.336 194.977 83.152C194.977 77.968 197.233 72.352 201.745 66.304C206.257 60.256 212.065 55.264 219.169 51.328C226.369 47.392 233.425 45.424 240.337 45.424C241.297 45.424 242.737 45.52 244.657 45.712L244.225 51.328C233.665 51.808 224.881 55.024 217.873 60.976C210.961 66.928 207.505 73.264 207.505 79.984C207.505 82.768 208.369 85.024 210.097 86.752C211.825 88.48 214.081 89.344 216.865 89.344C221.281 89.344 226.945 86.08 233.857 79.552ZM341.962 81.28L344.986 84.16C339.514 93.952 333.226 98.848 326.122 98.848C323.242 98.848 320.986 98.08 319.354 96.544C317.818 94.912 317.05 92.8 317.05 90.208C317.05 87.52 318.634 82.96 321.802 76.528C324.97 70.096 326.65 65.2 326.842 61.84C326.938 60.304 326.458 59.056 325.402 58.096C324.442 57.136 323.098 56.656 321.37 56.656C319.642 56.656 317.866 57.088 316.042 57.952C314.314 58.72 312.586 60.016 310.858 61.84C309.226 63.664 307.69 65.44 306.25 67.168C304.906 68.896 303.37 71.344 301.642 74.512C300.01 77.68 298.618 80.32 297.466 82.432C295.45 86.368 292.57 92.272 288.826 100.144L280.186 97.12C280.186 96.832 281.77 91.408 284.938 80.848C288.106 70.288 289.69 64 289.69 61.984C289.69 59.968 289.21 58.528 288.25 57.664C287.29 56.704 286.09 56.224 284.65 56.224C280.33 56.224 274.33 61.6 266.65 72.352C259.066 83.104 254.218 92.272 252.106 99.856L243.898 97.12C244.378 92.032 246.634 82.912 250.666 69.76C254.698 56.512 258.106 47.488 260.89 42.688L267.37 44.992C264.394 51.616 262.33 57.232 261.178 61.84C260.026 66.352 259.018 71.2 258.154 76.384C266.41 64.576 273.322 56.32 278.89 51.616C284.458 46.816 289.498 44.416 294.01 44.416C298.906 44.416 301.354 46.864 301.354 51.76C301.354 53.68 300.49 57.472 298.762 63.136C297.13 68.8 295.834 73.264 294.874 76.528C308.122 55.216 319.978 44.56 330.442 44.56C333.034 44.56 335.098 45.376 336.634 47.008C338.17 48.544 338.938 50.896 338.938 54.064C338.938 57.136 337.114 62.272 333.466 69.472C329.914 76.672 328.138 81.232 328.138 83.152C328.138 84.976 328.522 86.32 329.29 87.184C330.058 88.048 331.018 88.48 332.17 88.48C334.666 88.48 337.93 86.08 341.962 81.28ZM368.629 54.784C366.325 65.728 365.125 73.696 365.029 78.688C365.029 85.504 366.997 88.912 370.933 88.912C375.157 88.912 378.949 87.088 382.309 83.44C385.669 79.792 387.349 75.52 387.349 70.624C387.349 65.728 385.525 63.28 381.877 63.28C380.821 63.28 378.517 63.904 374.965 65.152L373.237 60.832C379.381 56.512 384.229 54.352 387.781 54.352C394.405 54.352 397.717 57.664 397.717 64.288C397.717 72.064 394.453 79.984 387.925 88.048C381.493 96.016 374.725 100 367.621 100C359.845 100 355.957 94.432 355.957 83.296C355.957 78.016 357.445 69.28 360.421 57.088L348.757 61.408L348.613 57.952C349.573 57.376 353.941 55.648 361.717 52.768C364.981 33.568 369.493 20.128 375.253 12.448C381.013 4.672 388.309 0.783998 397.141 0.783998C401.173 0.783998 404.389 2.08 406.789 4.67199C409.189 7.26399 410.389 10.624 410.389 14.752C410.389 23.008 406.597 30.736 399.013 37.936C391.429 45.04 381.301 50.656 368.629 54.784ZM369.493 50.464C377.845 46.624 384.757 42.016 390.229 36.64C395.701 31.264 398.437 26.368 398.437 21.952C398.437 19.648 397.765 17.776 396.421 16.336C395.077 14.896 393.397 14.176 391.381 14.176C387.349 14.176 383.365 17.008 379.429 22.672C375.493 28.336 372.181 37.6 369.493 50.464ZM474.095 90.928L474.527 94.672C474.143 94.96 469.679 96.688 461.135 99.856C459.983 106.192 458.495 112.432 456.671 118.576C454.943 124.816 453.167 129.52 451.343 132.688C449.615 135.952 447.551 139.168 445.151 142.336C440.351 148.672 433.871 151.84 425.711 151.84C421.679 151.84 418.463 150.592 416.063 148.096C413.663 145.6 412.463 142.192 412.463 137.872C412.463 121.264 426.383 107.92 454.223 97.84L461.999 70.48C453.743 82.864 446.303 90.496 439.679 93.376C436.415 94.912 432.959 95.68 429.311 95.68C425.759 95.68 422.879 94.528 420.671 92.224C418.559 89.92 417.503 86.56 417.503 82.144C417.503 77.728 418.991 71.584 421.967 63.712C425.039 55.744 428.447 49.072 432.191 43.696L439.247 46.72C438.959 47.008 437.615 49.552 435.215 54.352C430.991 63.088 428.879 69.568 428.879 73.792C428.879 78.016 429.695 80.848 431.327 82.288C432.959 83.728 435.359 84.448 438.527 84.448C441.695 84.448 445.247 82.576 449.183 78.832C453.215 74.992 459.407 67.456 467.759 56.224L472.943 59.248C472.175 62.416 470.447 68.176 467.759 76.528C465.167 84.784 463.391 91.12 462.431 95.536L474.095 90.928ZM453.359 102.16C447.311 104.944 441.983 108.112 437.375 111.664C428.735 118.192 424.415 124.528 424.415 130.672C424.415 132.976 425.087 134.848 426.431 136.288C427.775 137.728 429.455 138.448 431.471 138.448C441.071 138.448 448.367 126.352 453.359 102.16ZM541.301 83.152L544.325 85.6C542.693 89.632 540.101 93.04 536.549 95.824C533.093 98.608 529.925 100 527.045 100C524.261 100 522.053 99.04 520.421 97.12C518.789 95.104 517.973 92.512 517.973 89.344C517.973 86.176 518.501 82.096 519.557 77.104C515.045 84.208 510.197 89.776 505.013 93.808C499.829 97.84 495.461 99.856 491.909 99.856C486.533 99.856 483.845 96.64 483.845 90.208C483.845 83.776 486.053 75.136 490.469 64.288C494.981 53.344 498.197 47.104 500.117 45.568L507.029 48.592C503.093 54.928 500.117 61.168 498.101 67.312C496.085 73.456 495.077 77.584 495.077 79.696C495.077 81.712 495.701 83.344 496.949 84.592C498.293 85.84 499.829 86.464 501.557 86.464C505.397 86.464 510.149 82.96 515.812 75.952C521.573 68.848 527.429 58.288 533.381 44.272L540.725 47.584C540.533 48.352 538.325 53.92 534.101 64.288C529.973 74.656 527.909 80.896 527.909 83.008C527.909 85.024 528.341 86.56 529.205 87.616C530.165 88.672 531.077 89.2 531.941 89.2C532.901 89.2 533.621 89.152 534.101 89.056C534.581 88.96 535.061 88.768 535.541 88.48C536.021 88.192 536.405 87.952 536.693 87.76C537.077 87.568 537.509 87.232 537.989 86.752L539.141 85.6C539.333 85.408 539.669 85.024 540.149 84.448C540.725 83.776 541.109 83.344 541.301 83.152ZM532.949 28.288L537.269 30.592C535.349 33.568 532.853 36.208 529.781 38.512C526.805 40.816 523.829 41.968 520.853 41.968C517.877 41.968 514.757 40.864 511.493 38.656C508.229 36.352 505.589 34.048 503.573 31.744L508.181 27.856C513.173 32.752 517.253 35.2 520.421 35.2C525.317 35.2 529.493 32.896 532.949 28.288ZM641.16 54.784C638.856 65.728 637.656 73.696 637.56 78.688C637.56 85.504 639.528 88.912 643.464 88.912C647.688 88.912 651.48 87.088 654.84 83.44C658.2 79.792 659.88 75.52 659.88 70.624C659.88 65.728 658.056 63.28 654.408 63.28C653.352 63.28 651.048 63.904 647.496 65.152L645.768 60.832C651.912 56.512 656.76 54.352 660.312 54.352C666.936 54.352 670.248 57.664 670.248 64.288C670.248 72.064 666.984 79.984 660.456 88.048C654.024 96.016 647.256 100 640.152 100C632.376 100 628.488 94.432 628.488 83.296C628.488 78.016 629.976 69.28 632.952 57.088L621.288 61.408L621.144 57.952C622.104 57.376 626.472 55.648 634.248 52.768C637.512 33.568 642.024 20.128 647.784 12.448C653.544 4.672 660.84 0.783998 669.672 0.783998C673.704 0.783998 676.92 2.08 679.32 4.67199C681.72 7.26399 682.92 10.624 682.92 14.752C682.92 23.008 679.128 30.736 671.544 37.936C663.96 45.04 653.832 50.656 641.16 54.784ZM642.024 50.464C650.376 46.624 657.288 42.016 662.76 36.64C668.232 31.264 670.968 26.368 670.968 21.952C670.968 19.648 670.296 17.776 668.952 16.336C667.608 14.896 665.928 14.176 663.912 14.176C659.88 14.176 655.896 17.008 651.96 22.672C648.024 28.336 644.712 37.6 642.024 50.464ZM778.086 73.504C785.382 62.56 791.718 55.12 797.094 51.184C802.47 47.152 807.174 45.136 811.206 45.136C815.238 45.136 818.358 46.384 820.566 48.88C822.774 51.28 823.878 54.352 823.878 58.096C823.878 68.464 820.134 78.064 812.646 86.896C805.254 95.632 796.902 100 787.59 100C783.462 100 780.198 99.28 777.798 97.84L781.254 91.648C786.342 92.32 789.462 92.656 790.614 92.656C795.798 92.656 800.646 89.632 805.158 83.584C809.67 77.536 811.926 71.344 811.926 65.008C811.926 62.608 811.206 60.64 809.766 59.104C808.422 57.472 806.646 56.656 804.438 56.656C799.158 56.656 793.158 61.312 786.438 70.624C779.814 79.936 773.574 91.456 767.718 105.184C761.958 119.008 756.918 133.696 752.598 149.248L743.958 146.224C744.15 145.648 745.974 140.656 749.43 131.248C752.79 121.936 756.102 112.672 759.366 103.456C768.39 78.112 772.902 64.24 772.902 61.84C772.902 55.696 771.654 50.128 769.158 45.136L776.358 41.536C779.334 45.664 780.822 50.032 780.822 54.64C780.822 59.152 779.91 65.44 778.086 73.504ZM871.779 57.232C874.275 61.36 875.523 65.92 875.523 70.912C875.523 78.688 872.835 85.648 867.459 91.792C862.083 97.84 855.747 100.864 848.451 100.864C842.883 100.864 838.515 99.28 835.347 96.112C832.275 92.848 830.739 88.384 830.739 82.72C830.739 73.6 834.291 65.44 841.395 58.24C848.499 50.944 856.467 47.296 865.299 47.296C866.931 47.296 868.083 47.344 868.755 47.44L869.187 52.192C861.507 52.192 855.123 54.4 850.035 58.816C844.947 63.232 842.403 68.896 842.403 75.808C842.403 79.936 843.411 83.296 845.427 85.888C847.443 88.384 850.371 89.632 854.211 89.632C858.147 89.632 861.267 87.904 863.571 84.448C865.875 80.992 867.027 76.96 867.027 72.352C867.027 67.648 866.115 63.376 864.291 59.536L871.779 57.232ZM934.072 50.896C934.072 57.904 927.64 63.712 914.776 68.32C918.232 70.432 920.776 72.352 922.408 74.08C924.136 75.712 925 77.584 925 79.696C925 85.072 921.976 89.824 915.928 93.952C909.88 97.984 903.4 100 896.488 100C893.128 100 889.768 99.472 886.408 98.416C883.048 97.36 880.744 96.064 879.496 94.528L884.968 89.488C886.12 90.64 887.656 91.648 889.576 92.512C891.592 93.376 893.272 93.808 894.616 93.808C899.416 93.808 903.784 92.608 907.72 90.208C911.752 87.712 913.768 84.688 913.768 81.136C913.768 79.216 913.048 77.632 911.608 76.384C910.168 75.04 908.584 74.128 906.856 73.648C905.224 73.072 903.688 72.4 902.248 71.632C900.808 70.768 900.088 69.808 900.088 68.752C900.088 67.696 901.192 66.736 903.4 65.872C905.704 64.912 908.248 64.144 911.032 63.568C913.816 62.896 916.312 61.84 918.52 60.4C920.824 58.864 921.976 57.184 921.976 55.36C921.976 53.536 921.352 52.096 920.104 51.04C918.856 49.984 917.272 49.456 915.352 49.456C913.528 49.456 910.648 50.464 906.712 52.48C902.776 54.496 898.792 57.088 894.76 60.256L892.744 56.224C896.2 52.192 900.856 48.64 906.712 45.568C912.664 42.4 917.416 40.816 920.968 40.816C924.616 40.816 927.688 41.824 930.184 43.84C932.776 45.76 934.072 48.112 934.072 50.896ZM969.545 66.448C974.825 66.256 977.465 68.416 977.465 72.928C977.465 78.88 974.249 84.784 967.817 90.64C961.481 96.4 955.097 99.28 948.665 99.28C942.617 99.28 939.593 95.2 939.593 87.04C939.593 80.608 941.177 72.64 944.345 63.136C947.609 53.536 950.297 46.768 952.409 42.832L958.889 44.992C956.393 52.288 953.849 61.216 951.257 71.776L953.129 70.912C959.561 67.936 965.033 66.448 969.545 66.448ZM967.241 81.28C967.817 79.936 968.105 78.688 968.105 77.536C967.817 74.944 965.561 73.648 961.337 73.648C959.321 73.648 955.577 74.512 950.105 76.24C949.337 79.12 948.953 81.712 948.953 84.016C948.953 86.224 949.481 88 950.537 89.344C951.689 90.688 953.177 91.36 955.001 91.36C956.921 91.36 959.177 90.4 961.769 88.48C964.361 86.464 966.185 84.064 967.241 81.28ZM991.289 79.552L986.969 98.56L978.761 97.264C980.681 85.648 983.081 74.848 985.961 64.864C988.937 54.88 991.769 47.728 994.457 43.408L1001.51 44.272C998.057 53.2 994.649 64.96 991.289 79.552ZM1037.68 83.008L1040.56 85.312C1037.68 89.152 1033.7 92.56 1028.61 95.536C1023.62 98.512 1019.59 100 1016.51 100C1013.54 100 1011.23 99.376 1009.6 98.128C1008.07 96.784 1007.3 95.056 1007.3 92.944C1007.3 90.832 1009.12 87.712 1012.77 83.584C1016.42 79.36 1020.07 75.136 1023.71 70.912C1027.46 66.688 1029.33 63.616 1029.33 61.696C1029.33 59.776 1028.8 58.192 1027.75 56.944C1026.79 55.6 1025.15 54.928 1022.85 54.928C1020.55 54.928 1016.37 56.896 1010.32 60.832L1009.03 55.792C1013.35 52.432 1017.91 49.696 1022.71 47.584C1027.6 45.472 1031.39 44.416 1034.08 44.416C1036.77 44.416 1038.83 45.04 1040.27 46.288C1041.81 47.536 1042.58 49.504 1042.58 52.192C1042.58 54.88 1039.55 60.544 1033.51 69.184C1032.26 70.912 1030.96 72.736 1029.62 74.656C1028.27 76.576 1027.27 77.968 1026.59 78.832C1026.02 79.696 1025.44 80.608 1024.87 81.568C1023.91 83.008 1023.43 84.16 1023.43 85.024C1023.43 85.792 1023.81 86.56 1024.58 87.328C1025.44 88.096 1026.26 88.48 1027.03 88.48C1027.89 88.48 1028.61 88.432 1029.19 88.336C1029.76 88.144 1030.39 87.856 1031.06 87.472C1031.73 86.992 1032.31 86.608 1032.79 86.32L1037.68 83.008ZM1072.27 73.504C1079.57 62.56 1085.91 55.12 1091.28 51.184C1096.66 47.152 1101.36 45.136 1105.39 45.136C1109.43 45.136 1112.55 46.384 1114.75 48.88C1116.96 51.28 1118.07 54.352 1118.07 58.096C1118.07 68.464 1114.32 78.064 1106.83 86.896C1099.44 95.632 1091.09 100 1081.78 100C1077.65 100 1074.39 99.28 1071.99 97.84L1075.44 91.648C1080.53 92.32 1083.65 92.656 1084.8 92.656C1089.99 92.656 1094.83 89.632 1099.35 83.584C1103.86 77.536 1106.11 71.344 1106.11 65.008C1106.11 62.608 1105.39 60.64 1103.95 59.104C1102.61 57.472 1100.83 56.656 1098.63 56.656C1093.35 56.656 1087.35 61.312 1080.63 70.624C1074 79.936 1067.76 91.456 1061.91 105.184C1056.15 119.008 1051.11 133.696 1046.79 149.248L1038.15 146.224C1038.34 145.648 1040.16 140.656 1043.62 131.248C1046.98 121.936 1050.29 112.672 1053.55 103.456C1062.58 78.112 1067.09 64.24 1067.09 61.84C1067.09 55.696 1065.84 50.128 1063.35 45.136L1070.55 41.536C1073.52 45.664 1075.01 50.032 1075.01 54.64C1075.01 59.152 1074.1 65.44 1072.27 73.504ZM1155.31 66.448C1160.59 66.256 1163.23 68.416 1163.23 72.928C1163.23 78.88 1160.01 84.784 1153.58 90.64C1147.25 96.4 1140.86 99.28 1134.43 99.28C1128.38 99.28 1125.36 95.2 1125.36 87.04C1125.36 80.608 1126.94 72.64 1130.11 63.136C1133.37 53.536 1136.06 46.768 1138.17 42.832L1144.65 44.992C1142.16 52.288 1139.61 61.216 1137.02 71.776L1138.89 70.912C1145.33 67.936 1150.8 66.448 1155.31 66.448ZM1153.01 81.28C1153.58 79.936 1153.87 78.688 1153.87 77.536C1153.58 74.944 1151.33 73.648 1147.1 73.648C1145.09 73.648 1141.34 74.512 1135.87 76.24C1135.1 79.12 1134.72 81.712 1134.72 84.016C1134.72 86.224 1135.25 88 1136.3 89.344C1137.45 90.688 1138.94 91.36 1140.77 91.36C1142.69 91.36 1144.94 90.4 1147.53 88.48C1150.13 86.464 1151.95 84.064 1153.01 81.28ZM1177.05 79.552L1172.73 98.56L1164.53 97.264C1166.45 85.648 1168.85 74.848 1171.73 64.864C1174.7 54.88 1177.53 47.728 1180.22 43.408L1187.28 44.272C1183.82 53.2 1180.41 64.96 1177.05 79.552ZM1262.62 82.864C1262.62 84.784 1263.05 86.272 1263.91 87.328C1264.87 88.384 1265.83 88.912 1266.79 88.912C1267.75 88.912 1268.47 88.864 1268.95 88.768C1269.43 88.672 1269.91 88.48 1270.39 88.192C1270.87 87.808 1271.26 87.52 1271.54 87.328C1271.93 87.136 1272.36 86.8 1272.84 86.32C1273.42 85.744 1273.8 85.36 1273.99 85.168C1274.38 84.592 1275.05 83.824 1276.01 82.864L1279.03 85.312C1277.3 89.344 1274.66 92.752 1271.11 95.536C1267.66 98.32 1264.54 99.712 1261.75 99.712C1258.97 99.712 1256.76 98.704 1255.13 96.688C1253.5 94.672 1252.68 92.128 1252.68 89.056C1252.68 85.888 1253.21 81.808 1254.26 76.816C1249.66 84.112 1245 89.728 1240.3 93.664C1235.69 97.6 1231.51 99.568 1227.77 99.568C1222.58 99.568 1219.99 96.256 1219.99 89.632C1219.99 87.52 1220.66 83.296 1222.01 76.96C1217.4 84.16 1212.7 89.776 1207.9 93.808C1203.19 97.744 1198.97 99.712 1195.22 99.712C1190.04 99.712 1187.45 96.496 1187.45 90.064C1187.45 83.632 1189.66 75.04 1194.07 64.288C1198.49 53.44 1201.7 47.152 1203.72 45.424L1210.63 48.448C1207.37 53.728 1204.54 59.824 1202.14 66.736C1199.83 73.552 1198.68 77.92 1198.68 79.84C1198.68 81.664 1199.21 83.296 1200.26 84.736C1201.32 86.08 1202.47 86.752 1203.72 86.752C1207.27 86.752 1212.74 81.568 1220.14 71.2C1227.62 60.832 1232.66 52 1235.26 44.704L1243.9 48.448C1241.98 51.04 1239.38 56.272 1236.12 64.144C1232.86 71.92 1231.22 76.912 1231.22 79.12C1231.22 81.328 1231.9 83.056 1233.24 84.304C1234.58 85.552 1235.93 86.176 1237.27 86.176C1240.73 86.176 1245.82 81.808 1252.54 73.072C1259.35 64.24 1264.58 54.88 1268.23 44.992L1276.73 48.736C1276.15 49.984 1274.57 53.152 1271.98 58.24C1265.74 70.048 1262.62 78.256 1262.62 82.864ZM1322.18 83.008L1325.5 85.6C1322.52 89.728 1318.44 93.184 1313.26 95.968C1308.07 98.656 1303.03 100 1298.14 100C1293.24 100 1289.3 98.56 1286.33 95.68C1283.35 92.8 1281.86 89.008 1281.86 84.304C1281.86 75.472 1286.52 66.784 1295.83 58.24C1305.24 49.696 1314.74 45.424 1324.34 45.424C1330.68 45.424 1333.85 47.92 1333.85 52.912C1333.85 58.096 1330.49 63.328 1323.77 68.608C1317.14 73.888 1307.78 78.688 1295.69 83.008C1296.55 85.216 1297.9 86.944 1299.72 88.192C1301.54 89.44 1303.42 90.064 1305.34 90.064C1309.46 90.064 1315.08 87.712 1322.18 83.008ZM1294.97 78.688C1302.74 76 1309.42 72.64 1314.98 68.608C1320.55 64.576 1323.34 60.88 1323.34 57.52C1323.34 56.272 1322.86 55.168 1321.9 54.208C1320.94 53.248 1319.83 52.768 1318.58 52.768C1314.07 52.768 1309.18 55.6 1303.9 61.264C1298.71 66.832 1295.74 72.64 1294.97 78.688ZM1469.18 82.576L1472.21 84.88C1470.1 89.104 1467.17 92.656 1463.42 95.536C1459.78 98.416 1456.46 99.856 1453.49 99.856C1450.51 99.856 1448.16 98.992 1446.43 97.264C1444.7 95.536 1443.84 93.376 1443.84 90.784C1443.84 88.192 1445.47 83.68 1448.74 77.248C1452.1 70.72 1453.78 65.92 1453.78 62.848C1453.78 61.504 1453.2 60.304 1452.05 59.248C1450.99 58.096 1449.7 57.52 1448.16 57.52C1443.26 57.52 1438.32 61.264 1433.33 68.752C1428.34 76.144 1422.77 86.848 1416.62 100.864L1407.98 97.84C1409.81 86.704 1412.4 75.856 1415.76 65.296C1419.22 54.64 1422.38 47.008 1425.26 42.4L1431.17 44.272C1428.48 51.088 1425.07 62.848 1420.94 79.552C1434.19 56.896 1446.38 45.568 1457.52 45.568C1459.92 45.568 1461.89 46.384 1463.42 48.016C1465.06 49.648 1465.87 51.568 1465.87 53.776C1465.87 55.984 1465.58 58 1465.01 59.824C1464.43 61.552 1462.61 65.68 1459.54 72.208C1456.56 78.64 1455.07 82.672 1455.07 84.304C1455.07 85.936 1455.55 87.232 1456.51 88.192C1457.47 89.056 1458.38 89.488 1459.25 89.488C1460.11 89.488 1460.83 89.344 1461.41 89.056C1461.98 88.768 1462.61 88.336 1463.28 87.76C1464.05 87.184 1464.72 86.656 1465.3 86.176C1465.87 85.696 1466.54 85.072 1467.31 84.304C1468.18 83.44 1468.8 82.864 1469.18 82.576ZM1537.78 90.928L1538.21 94.672C1537.83 94.96 1533.37 96.688 1524.82 99.856C1523.67 106.192 1522.18 112.432 1520.36 118.576C1518.63 124.816 1516.85 129.52 1515.03 132.688C1513.3 135.952 1511.24 139.168 1508.84 142.336C1504.04 148.672 1497.56 151.84 1489.4 151.84C1485.37 151.84 1482.15 150.592 1479.75 148.096C1477.35 145.6 1476.15 142.192 1476.15 137.872C1476.15 121.264 1490.07 107.92 1517.91 97.84L1525.69 70.48C1517.43 82.864 1509.99 90.496 1503.37 93.376C1500.1 94.912 1496.65 95.68 1493 95.68C1489.45 95.68 1486.57 94.528 1484.36 92.224C1482.25 89.92 1481.19 86.56 1481.19 82.144C1481.19 77.728 1482.68 71.584 1485.65 63.712C1488.73 55.744 1492.13 49.072 1495.88 43.696L1502.93 46.72C1502.65 47.008 1501.3 49.552 1498.9 54.352C1494.68 63.088 1492.57 69.568 1492.57 73.792C1492.57 78.016 1493.38 80.848 1495.01 82.288C1496.65 83.728 1499.05 84.448 1502.21 84.448C1505.38 84.448 1508.93 82.576 1512.87 78.832C1516.9 74.992 1523.09 67.456 1531.45 56.224L1536.63 59.248C1535.86 62.416 1534.13 68.176 1531.45 76.528C1528.85 84.784 1527.08 91.12 1526.12 95.536L1537.78 90.928ZM1517.05 102.16C1511 104.944 1505.67 108.112 1501.06 111.664C1492.42 118.192 1488.1 124.528 1488.1 130.672C1488.1 132.976 1488.77 134.848 1490.12 136.288C1491.46 137.728 1493.14 138.448 1495.16 138.448C1504.76 138.448 1512.05 126.352 1517.05 102.16ZM1643.87 81.28L1646.89 84.16C1641.42 93.952 1635.13 98.848 1628.03 98.848C1625.15 98.848 1622.89 98.08 1621.26 96.544C1619.72 94.912 1618.96 92.8 1618.96 90.208C1618.96 87.52 1620.54 82.96 1623.71 76.528C1626.88 70.096 1628.56 65.2 1628.75 61.84C1628.84 60.304 1628.36 59.056 1627.31 58.096C1626.35 57.136 1625 56.656 1623.28 56.656C1621.55 56.656 1619.77 57.088 1617.95 57.952C1616.22 58.72 1614.49 60.016 1612.76 61.84C1611.13 63.664 1609.6 65.44 1608.16 67.168C1606.81 68.896 1605.28 71.344 1603.55 74.512C1601.92 77.68 1600.52 80.32 1599.37 82.432C1597.36 86.368 1594.48 92.272 1590.73 100.144L1582.09 97.12C1582.09 96.832 1583.68 91.408 1586.84 80.848C1590.01 70.288 1591.6 64 1591.6 61.984C1591.6 59.968 1591.12 58.528 1590.16 57.664C1589.2 56.704 1588 56.224 1586.56 56.224C1582.24 56.224 1576.24 61.6 1568.56 72.352C1560.97 83.104 1556.12 92.272 1554.01 99.856L1545.8 97.12C1546.28 92.032 1548.54 82.912 1552.57 69.76C1556.6 56.512 1560.01 47.488 1562.8 42.688L1569.28 44.992C1566.3 51.616 1564.24 57.232 1563.08 61.84C1561.93 66.352 1560.92 71.2 1560.06 76.384C1568.32 64.576 1575.23 56.32 1580.8 51.616C1586.36 46.816 1591.4 44.416 1595.92 44.416C1600.81 44.416 1603.26 46.864 1603.26 51.76C1603.26 53.68 1602.4 57.472 1600.67 63.136C1599.04 68.8 1597.74 73.264 1596.78 76.528C1610.03 55.216 1621.88 44.56 1632.35 44.56C1634.94 44.56 1637 45.376 1638.54 47.008C1640.08 48.544 1640.84 50.896 1640.84 54.064C1640.84 57.136 1639.02 62.272 1635.37 69.472C1631.82 76.672 1630.04 81.232 1630.04 83.152C1630.04 84.976 1630.43 86.32 1631.2 87.184C1631.96 88.048 1632.92 88.48 1634.08 88.48C1636.57 88.48 1639.84 86.08 1643.87 81.28ZM1693.58 83.008L1696.89 85.6C1693.91 89.728 1689.83 93.184 1684.65 95.968C1679.46 98.656 1674.42 100 1669.53 100C1664.63 100 1660.7 98.56 1657.72 95.68C1654.74 92.8 1653.26 89.008 1653.26 84.304C1653.26 75.472 1657.91 66.784 1667.22 58.24C1676.63 49.696 1686.14 45.424 1695.74 45.424C1702.07 45.424 1705.24 47.92 1705.24 52.912C1705.24 58.096 1701.88 63.328 1695.16 68.608C1688.54 73.888 1679.18 78.688 1667.08 83.008C1667.94 85.216 1669.29 86.944 1671.11 88.192C1672.94 89.44 1674.81 90.064 1676.73 90.064C1680.86 90.064 1686.47 87.712 1693.58 83.008ZM1666.36 78.688C1674.14 76 1680.81 72.64 1686.38 68.608C1691.94 64.576 1694.73 60.88 1694.73 57.52C1694.73 56.272 1694.25 55.168 1693.29 54.208C1692.33 53.248 1691.22 52.768 1689.98 52.768C1685.46 52.768 1680.57 55.6 1675.29 61.264C1670.1 66.832 1667.13 72.64 1666.36 78.688ZM1728.33 54.784C1726.03 65.728 1724.83 73.696 1724.73 78.688C1724.73 85.504 1726.7 88.912 1730.64 88.912C1734.86 88.912 1738.65 87.088 1742.01 83.44C1745.37 79.792 1747.05 75.52 1747.05 70.624C1747.05 65.728 1745.23 63.28 1741.58 63.28C1740.52 63.28 1738.22 63.904 1734.67 65.152L1732.94 60.832C1739.08 56.512 1743.93 54.352 1747.48 54.352C1754.11 54.352 1757.42 57.664 1757.42 64.288C1757.42 72.064 1754.16 79.984 1747.63 88.048C1741.2 96.016 1734.43 100 1727.32 100C1719.55 100 1715.66 94.432 1715.66 83.296C1715.66 78.016 1717.15 69.28 1720.12 57.088L1708.46 61.408L1708.32 57.952C1709.28 57.376 1713.64 55.648 1721.42 52.768C1724.68 33.568 1729.2 20.128 1734.96 12.448C1740.72 4.672 1748.01 0.783998 1756.84 0.783998C1760.88 0.783998 1764.09 2.08 1766.49 4.67199C1768.89 7.26399 1770.09 10.624 1770.09 14.752C1770.09 23.008 1766.3 30.736 1758.72 37.936C1751.13 45.04 1741 50.656 1728.33 54.784ZM1729.2 50.464C1737.55 46.624 1744.46 42.016 1749.93 36.64C1755.4 31.264 1758.14 26.368 1758.14 21.952C1758.14 19.648 1757.47 17.776 1756.12 16.336C1754.78 14.896 1753.1 14.176 1751.08 14.176C1747.05 14.176 1743.07 17.008 1739.13 22.672C1735.2 28.336 1731.88 37.6 1729.2 50.464ZM1826.45 84.016L1830.05 87.184C1824.49 96.304 1818.58 100.864 1812.34 100.864C1808.79 100.864 1805.14 98.56 1801.4 93.952C1797.75 89.344 1795.54 84.88 1794.77 80.56C1794.2 81.616 1792.57 84.4 1789.88 88.912C1787.19 93.424 1785.27 97.12 1784.12 100L1775.48 96.976C1777.49 85.168 1779.94 74.032 1782.82 63.568C1785.8 53.104 1788.58 45.76 1791.17 41.536L1797.08 43.408C1795.35 47.824 1792.47 59.584 1788.44 78.688C1793.72 67.84 1799.05 59.92 1804.42 54.928C1809.8 49.84 1815.7 46.48 1822.13 44.848V54.352C1815.22 54.64 1808.55 59.296 1802.12 68.32C1802.5 74.56 1804.33 79.744 1807.59 83.872C1810.95 88 1814.12 90.064 1817.09 90.064C1818.53 90.064 1821.65 88.048 1826.45 84.016ZM1899.91 83.152L1902.93 85.6C1901.3 89.632 1898.71 93.04 1895.16 95.824C1891.7 98.608 1888.53 100 1885.65 100C1882.87 100 1880.66 99.04 1879.03 97.12C1877.4 95.104 1876.58 92.512 1876.58 89.344C1876.58 86.176 1877.11 82.096 1878.17 77.104C1873.65 84.208 1868.81 89.776 1863.62 93.808C1858.44 97.84 1854.07 99.856 1850.52 99.856C1845.14 99.856 1842.45 96.64 1842.45 90.208C1842.45 83.776 1844.66 75.136 1849.08 64.288C1853.59 53.344 1856.81 47.104 1858.73 45.568L1865.64 48.592C1861.7 54.928 1858.73 61.168 1856.71 67.312C1854.69 73.456 1853.69 77.584 1853.69 79.696C1853.69 81.712 1854.31 83.344 1855.56 84.592C1856.9 85.84 1858.44 86.464 1860.17 86.464C1864.01 86.464 1868.76 82.96 1874.42 75.952C1880.18 68.848 1886.04 58.288 1891.99 44.272L1899.33 47.584C1899.14 48.352 1896.93 53.92 1892.71 64.288C1888.58 74.656 1886.52 80.896 1886.52 83.008C1886.52 85.024 1886.95 86.56 1887.81 87.616C1888.77 88.672 1889.69 89.2 1890.55 89.2C1891.51 89.2 1892.23 89.152 1892.71 89.056C1893.19 88.96 1893.67 88.768 1894.15 88.48C1894.63 88.192 1895.01 87.952 1895.3 87.76C1895.69 87.568 1896.12 87.232 1896.6 86.752L1897.61 85.6C1897.89 85.408 1898.28 85.024 1898.76 84.448C1899.33 83.776 1899.72 83.344 1899.91 83.152ZM2039.22 43.984L2044.84 45.28C2044.74 45.952 2043.35 48.88 2040.66 54.064C2038.07 59.152 2035.29 65.872 2032.31 74.224C2029.34 82.48 2027.42 90.832 2026.55 99.28L2017.34 98.56C2017.34 93.28 2019.02 86.464 2022.38 78.112C2021.51 78.016 2019.74 77.968 2017.05 77.968C2014.46 77.968 2009.66 78.592 2002.65 79.84C1997.75 90.784 1995.3 100.144 1995.3 107.92L1985.66 106.624C1985.66 99.808 1988.2 91.408 1993.29 81.424C1988.39 82.192 1983.5 83.344 1978.6 84.88L1977.16 79.264C1977.16 78.976 1979.7 78.16 1984.79 76.816C1989.98 75.472 1993.82 74.608 1996.31 74.224C2003.99 56.56 2009.22 46.336 2012.01 43.552L2018.2 46C2017.72 46.96 2016.62 49.12 2014.89 52.48C2010.57 60.832 2007.64 67.36 2006.1 72.064C2014.46 71.2 2019.45 70.768 2021.08 70.768C2022.81 70.768 2024.25 70.816 2025.4 70.912C2032.12 55.456 2036.73 46.48 2039.22 43.984ZM2113.14 85.456L2116.45 87.904C2115.11 90.784 2112.61 93.52 2108.96 96.112C2105.41 98.704 2102.15 100 2099.17 100C2093.51 100 2090.68 97.024 2090.68 91.072C2090.68 88.288 2091.4 84.976 2092.84 81.136L2087.51 86.608C2082.32 91.888 2077.81 95.44 2073.97 97.264C2070.23 99.088 2066.53 100 2062.88 100C2059.24 100 2056.45 98.992 2054.53 96.976C2052.71 94.864 2051.8 91.984 2051.8 88.336C2051.8 81.616 2054.39 74.992 2059.57 68.464C2064.76 61.84 2071.38 56.464 2079.44 52.336C2087.51 48.208 2095.57 46.096 2103.64 46L2103.92 50.752L2097.88 52.048C2089.14 53.968 2081.41 57.808 2074.69 63.568C2068.07 69.328 2064.76 75.088 2064.76 80.848C2064.76 86.512 2067.06 89.344 2071.67 89.344C2075.99 89.344 2081.32 86.32 2087.65 80.272C2093.99 74.224 2099.27 67.12 2103.49 58.96L2109.54 62.56C2103.59 74.56 2100.61 82.192 2100.61 85.456C2100.61 86.8 2101.04 87.952 2101.91 88.912C2102.87 89.776 2103.78 90.208 2104.64 90.208C2105.6 90.208 2106.23 90.16 2106.52 90.064C2106.8 89.968 2107.09 89.872 2107.38 89.776C2107.67 89.584 2108 89.344 2108.39 89.056C2108.87 88.768 2109.25 88.48 2109.54 88.192C2109.92 87.904 2110.5 87.472 2111.27 86.896C2112.04 86.32 2112.66 85.84 2113.14 85.456Z" fill="white"></path> </svg> 