<?xml version="1.0" encoding="UTF-8"?> <svg xmlns="http://www.w3.org/2000/svg" width="1158" height="209" viewBox="0 0 1158 209" fill="none"> <path d="M203.797 126.984L205.606 126.132L205.066 124.984H203.797V126.984ZM178.766 126.984V124.984H176.766V126.984H178.766ZM178.766 207V209H180.766V207H178.766ZM129.688 207H127.688V209H129.688V207ZM129.688 126.984H131.688V124.984H129.688V126.984ZM104.234 126.984V124.984H102.99L102.44 126.101L104.234 126.984ZM64.8594 207V209H66.1042L66.6539 207.883L64.8594 207ZM3.54688 207L1.79607 206.033L0.157805 209H3.54688V207ZM65.2812 95.2031L67.0321 96.1699L67.6096 95.124L66.9624 94.1197L65.2812 95.2031ZM5.375 2.25V0.25H1.70667L3.69388 3.33344L5.375 2.25ZM67.6719 2.25L69.4449 1.32466L68.8841 0.25H67.6719V2.25ZM109.578 82.5469L107.805 83.4722L108.366 84.5469H109.578V82.5469ZM129.688 82.5469V84.5469H131.688V82.5469H129.688ZM129.688 2.25V0.25H127.688V2.25H129.688ZM178.766 2.25H180.766V0.25H178.766V2.25ZM178.766 82.5469H176.766V84.5469H178.766V82.5469ZM198.734 82.5469V84.5469H199.971L200.524 83.44L198.734 82.5469ZM238.812 2.25V0.25H237.575L237.023 1.35683L238.812 2.25ZM300.969 2.25L302.661 3.31576L304.592 0.25H300.969V2.25ZM242.609 94.9219L240.917 93.8561L240.295 94.844L240.849 95.8715L242.609 94.9219ZM303.078 207V209H306.43L304.838 206.05L303.078 207ZM241.484 207L239.675 207.852L240.216 209H241.484V207ZM203.797 124.984H178.766V128.984H203.797V124.984ZM176.766 126.984V207H180.766V126.984H176.766ZM178.766 205H129.688V209H178.766V205ZM131.688 207V126.984H127.688V207H131.688ZM129.688 124.984H104.234V128.984H129.688V124.984ZM102.44 126.101L63.0649 206.117L66.6539 207.883L106.029 127.867L102.44 126.101ZM64.8594 205H3.54688V209H64.8594V205ZM5.29768 207.967L67.0321 96.1699L63.5304 94.2363L1.79607 206.033L5.29768 207.967ZM66.9624 94.1197L7.05612 1.16656L3.69388 3.33344L63.6001 96.2866L66.9624 94.1197ZM5.375 4.25H67.6719V0.25H5.375V4.25ZM65.8988 3.17534L107.805 83.4722L111.351 81.6215L69.4449 1.32466L65.8988 3.17534ZM109.578 84.5469H129.688V80.5469H109.578V84.5469ZM131.688 82.5469V2.25H127.688V82.5469H131.688ZM129.688 4.25H178.766V0.25H129.688V4.25ZM176.766 2.25V82.5469H180.766V2.25H176.766ZM178.766 84.5469H198.734V80.5469H178.766V84.5469ZM200.524 83.44L240.602 3.14317L237.023 1.35683L196.945 81.6537L200.524 83.44ZM238.812 4.25H300.969V0.25H238.812V4.25ZM299.276 1.18424L240.917 93.8561L244.302 95.9876L302.661 3.31576L299.276 1.18424ZM240.849 95.8715L301.318 207.95L304.838 206.05L244.37 93.9722L240.849 95.8715ZM303.078 205H241.484V209H303.078V205ZM243.294 206.148L205.606 126.132L201.988 127.837L239.675 207.852L243.294 206.148ZM434.141 168.75L436.05 168.153L435.611 166.75H434.141V168.75ZM366.5 168.75V166.75H365.024L364.589 168.16L366.5 168.75ZM354.688 207V209H356.163L356.598 207.59L354.688 207ZM301.953 207L300.075 206.311L299.089 209H301.953V207ZM377.047 2.25V0.25H375.65L375.169 1.56134L377.047 2.25ZM423.453 2.25L425.329 1.5568L424.846 0.25H423.453V2.25ZM499.109 207V209H501.981L500.985 206.307L499.109 207ZM446.094 207L444.185 207.597L444.623 209H446.094V207ZM378.312 130.641L376.402 130.05L375.601 132.641H378.312V130.641ZM422.328 130.641V132.641H425.044L424.238 130.047L422.328 130.641ZM400.25 59.625L402.16 59.0313L400.244 52.8685L398.339 59.0347L400.25 59.625ZM434.141 166.75H366.5V170.75H434.141V166.75ZM364.589 168.16L352.777 206.41L356.598 207.59L368.411 169.34L364.589 168.16ZM354.688 205H301.953V209H354.688V205ZM303.831 207.689L378.925 2.93866L375.169 1.56134L300.075 206.311L303.831 207.689ZM377.047 4.25H423.453V0.25H377.047V4.25ZM421.577 2.9432L497.233 207.693L500.985 206.307L425.329 1.5568L421.577 2.9432ZM499.109 205H446.094V209H499.109V205ZM448.003 206.403L436.05 168.153L432.232 169.347L444.185 207.597L448.003 206.403ZM378.312 132.641H422.328V128.641H378.312V132.641ZM424.238 130.047L402.16 59.0313L398.34 60.2187L420.418 131.234L424.238 130.047ZM398.339 59.0347L376.402 130.05L380.223 131.231L402.161 60.2153L398.339 59.0347ZM596.141 114.75V116.75H598.141V114.75H596.141ZM563.234 114.75V112.75H561.234V114.75H563.234ZM563.234 207V209H565.234V207H563.234ZM513.875 207H511.875V209H513.875V207ZM513.875 114.75H515.875V112.75H513.875V114.75ZM493.484 114.75H491.484V116.75H493.484V114.75ZM493.484 87.8906V85.8906H491.484V87.8906H493.484ZM513.875 87.8906V89.8906H515.875V87.8906H513.875ZM513.875 2.25V0.25H511.875V2.25H513.875ZM652.25 2.25H654.25V0.25H652.25V2.25ZM652.25 40.3594V42.3594H654.25V40.3594H652.25ZM563.234 40.3594V38.3594H561.234V40.3594H563.234ZM563.234 87.8906H561.234V89.8906H563.234V87.8906ZM596.141 87.8906H598.141V85.8906H596.141V87.8906ZM596.141 112.75H563.234V116.75H596.141V112.75ZM561.234 114.75V207H565.234V114.75H561.234ZM563.234 205H513.875V209H563.234V205ZM515.875 207V114.75H511.875V207H515.875ZM513.875 112.75H493.484V116.75H513.875V112.75ZM495.484 114.75V87.8906H491.484V114.75H495.484ZM493.484 89.8906H513.875V85.8906H493.484V89.8906ZM515.875 87.8906V2.25H511.875V87.8906H515.875ZM513.875 4.25H652.25V0.25H513.875V4.25ZM650.25 2.25V40.3594H654.25V2.25H650.25ZM652.25 38.3594H563.234V42.3594H652.25V38.3594ZM561.234 40.3594V87.8906H565.234V40.3594H561.234ZM563.234 89.8906H596.141V85.8906H563.234V89.8906ZM594.141 87.8906V114.75H598.141V87.8906H594.141ZM762.078 168.75L763.987 168.153L763.549 166.75H762.078V168.75ZM694.438 168.75V166.75H692.962L692.527 168.16L694.438 168.75ZM682.625 207V209H684.101L684.536 207.59L682.625 207ZM629.891 207L628.013 206.311L627.027 209H629.891V207ZM704.984 2.25V0.25H703.588L703.107 1.56134L704.984 2.25ZM751.391 2.25L753.267 1.5568L752.784 0.25H751.391V2.25ZM827.047 207V209H829.918L828.923 206.307L827.047 207ZM774.031 207L772.122 207.597L772.561 209H774.031V207ZM706.25 130.641L704.339 130.05L703.539 132.641H706.25V130.641ZM750.266 130.641V132.641H752.982L752.175 130.047L750.266 130.641ZM728.188 59.625L730.097 59.0313L728.181 52.8685L726.277 59.0347L728.188 59.625ZM762.078 166.75H694.438V170.75H762.078V166.75ZM692.527 168.16L680.714 206.41L684.536 207.59L696.348 169.34L692.527 168.16ZM682.625 205H629.891V209H682.625V205ZM631.768 207.689L706.862 2.93866L703.107 1.56134L628.013 206.311L631.768 207.689ZM704.984 4.25H751.391V0.25H704.984V4.25ZM749.515 2.9432L825.171 207.693L828.923 206.307L753.267 1.5568L749.515 2.9432ZM827.047 205H774.031V209H827.047V205ZM775.94 206.403L763.987 168.153L760.169 169.347L772.122 207.597L775.94 206.403ZM706.25 132.641H750.266V128.641H706.25V132.641ZM752.175 130.047L730.097 59.0313L726.278 60.2187L748.356 131.234L752.175 130.047ZM726.277 59.0347L704.339 130.05L708.161 131.231L730.098 60.2153L726.277 59.0347ZM924.078 114.75V116.75H926.078V114.75H924.078ZM891.172 114.75V112.75H889.172V114.75H891.172ZM891.172 207V209H893.172V207H891.172ZM841.812 207H839.812V209H841.812V207ZM841.812 114.75H843.812V112.75H841.812V114.75ZM821.422 114.75H819.422V116.75H821.422V114.75ZM821.422 87.8906V85.8906H819.422V87.8906H821.422ZM841.812 87.8906V89.8906H843.812V87.8906H841.812ZM841.812 2.25V0.25H839.812V2.25H841.812ZM980.188 2.25H982.188V0.25H980.188V2.25ZM980.188 40.3594V42.3594H982.188V40.3594H980.188ZM891.172 40.3594V38.3594H889.172V40.3594H891.172ZM891.172 87.8906H889.172V89.8906H891.172V87.8906ZM924.078 87.8906H926.078V85.8906H924.078V87.8906ZM924.078 112.75H891.172V116.75H924.078V112.75ZM889.172 114.75V207H893.172V114.75H889.172ZM891.172 205H841.812V209H891.172V205ZM843.812 207V114.75H839.812V207H843.812ZM841.812 112.75H821.422V116.75H841.812V112.75ZM823.422 114.75V87.8906H819.422V114.75H823.422ZM821.422 89.8906H841.812V85.8906H821.422V89.8906ZM843.812 87.8906V2.25H839.812V87.8906H843.812ZM841.812 4.25H980.188V0.25H841.812V4.25ZM978.188 2.25V40.3594H982.188V2.25H978.188ZM980.188 38.3594H891.172V42.3594H980.188V38.3594ZM889.172 40.3594V87.8906H893.172V40.3594H889.172ZM891.172 89.8906H924.078V85.8906H891.172V89.8906ZM922.078 87.8906V114.75H926.078V87.8906H922.078ZM1090.02 168.75L1091.92 168.153L1091.49 166.75H1090.02V168.75ZM1022.38 168.75V166.75H1020.9L1020.46 168.16L1022.38 168.75ZM1010.56 207V209H1012.04L1012.47 207.59L1010.56 207ZM957.828 207L955.95 206.311L954.964 209H957.828V207ZM1032.92 2.25V0.25H1031.53L1031.04 1.56134L1032.92 2.25ZM1079.33 2.25L1081.2 1.5568L1080.72 0.25H1079.33V2.25ZM1154.98 207V209H1157.86L1156.86 206.307L1154.98 207ZM1101.97 207L1100.06 207.597L1100.5 209H1101.97V207ZM1034.19 130.641L1032.28 130.05L1031.48 132.641H1034.19V130.641ZM1078.2 130.641V132.641H1080.92L1080.11 130.047L1078.2 130.641ZM1056.12 59.625L1058.03 59.0313L1056.12 52.8685L1054.21 59.0347L1056.12 59.625ZM1090.02 166.75H1022.38V170.75H1090.02V166.75ZM1020.46 168.16L1008.65 206.41L1012.47 207.59L1024.29 169.34L1020.46 168.16ZM1010.56 205H957.828V209H1010.56V205ZM959.706 207.689L1034.8 2.93866L1031.04 1.56134L955.95 206.311L959.706 207.689ZM1032.92 4.25H1079.33V0.25H1032.92V4.25ZM1077.45 2.9432L1153.11 207.693L1156.86 206.307L1081.2 1.5568L1077.45 2.9432ZM1154.98 205H1101.97V209H1154.98V205ZM1103.88 206.403L1091.92 168.153L1088.11 169.347L1100.06 207.597L1103.88 206.403ZM1034.19 132.641H1078.2V128.641H1034.19V132.641ZM1080.11 130.047L1058.03 59.0313L1054.22 60.2187L1076.29 131.234L1080.11 130.047ZM1054.21 59.0347L1032.28 130.05L1036.1 131.231L1058.04 60.2153L1054.21 59.0347Z" fill="white"></path> </svg> 