<?xml version="1.0" encoding="UTF-8"?> <svg xmlns="http://www.w3.org/2000/svg" width="2445" height="106" viewBox="0 0 2445 106" fill="none"> <path d="M78.928 43.304H62.512V77H52.288V43.304H35.872L12.688 77H0.448L27.664 37.976L2.608 1.256H13.696L35.872 34.52H52.288V1.256H62.512V34.52H78.928L101.248 1.256H112.336L87.28 38.12L114.496 77H102.256L78.928 43.304ZM162.761 77.72C155.465 77.72 148.889 76.088 143.033 72.824C137.177 69.464 132.569 64.856 129.209 59C125.849 53.144 124.169 46.52 124.169 39.128C124.169 31.736 125.849 25.112 129.209 19.256C132.569 13.4 137.177 8.84 143.033 5.576C148.889 2.312 155.465 0.679996 162.761 0.679996C170.057 0.679996 176.633 2.312 182.489 5.576C188.345 8.84 192.905 13.4 196.169 19.256C199.529 25.112 201.209 31.736 201.209 39.128C201.209 46.52 199.529 53.144 196.169 59C192.905 64.856 188.345 69.464 182.489 72.824C176.633 76.088 170.057 77.72 162.761 77.72ZM162.761 68.648C168.137 68.648 172.937 67.448 177.161 65.048C181.481 62.552 184.841 59.048 187.241 54.536C189.641 50.024 190.841 44.888 190.841 39.128C190.841 33.368 189.641 28.232 187.241 23.72C184.841 19.208 181.481 15.752 177.161 13.352C172.937 10.856 168.137 9.608 162.761 9.608C157.385 9.608 152.537 10.856 148.217 13.352C143.993 15.752 140.633 19.208 138.137 23.72C135.737 28.232 134.537 33.368 134.537 39.128C134.537 44.888 135.737 50.024 138.137 54.536C140.633 59.048 143.993 62.552 148.217 65.048C152.537 67.448 157.385 68.648 162.761 68.648ZM284.98 1.256V77H274.756V10.328H238.468L237.46 29.048C236.692 44.792 234.868 56.888 231.988 65.336C229.108 73.784 223.972 78.008 216.58 78.008C214.564 78.008 212.116 77.624 209.236 76.856L209.956 68.072C211.684 68.456 212.884 68.648 213.556 68.648C217.492 68.648 220.468 66.824 222.484 63.176C224.5 59.528 225.844 55.016 226.516 49.64C227.188 44.264 227.764 37.16 228.244 28.328L229.54 1.256H284.98ZM384.028 1.256V67.784C384.028 80.648 380.86 90.152 374.524 96.296C368.284 102.536 358.828 105.656 346.156 105.656C339.148 105.656 332.476 104.6 326.14 102.488C319.9 100.472 314.812 97.64 310.876 93.992L316.06 86.216C319.708 89.48 324.124 92.024 329.308 93.848C334.588 95.672 340.108 96.584 345.868 96.584C355.468 96.584 362.524 94.328 367.036 89.816C371.548 85.4 373.804 78.488 373.804 69.08V59.432C370.636 64.232 366.46 67.88 361.276 70.376C356.188 72.872 350.524 74.12 344.284 74.12C337.18 74.12 330.7 72.584 324.844 69.512C319.084 66.344 314.524 61.976 311.164 56.408C307.9 50.744 306.268 44.36 306.268 37.256C306.268 30.152 307.9 23.816 311.164 18.248C314.524 12.68 319.084 8.36 324.844 5.288C330.604 2.216 337.084 0.679996 344.284 0.679996C350.716 0.679996 356.524 1.976 361.708 4.568C366.892 7.16 371.068 10.904 374.236 15.8V1.256H384.028ZM345.292 65.048C350.764 65.048 355.708 63.896 360.124 61.592C364.54 59.192 367.948 55.88 370.348 51.656C372.844 47.432 374.092 42.632 374.092 37.256C374.092 31.88 372.844 27.128 370.348 23C367.948 18.776 364.54 15.512 360.124 13.208C355.804 10.808 350.86 9.608 345.292 9.608C339.82 9.608 334.876 10.76 330.46 13.064C326.14 15.368 322.732 18.632 320.236 22.856C317.836 27.08 316.636 31.88 316.636 37.256C316.636 42.632 317.836 47.432 320.236 51.656C322.732 55.88 326.14 59.192 330.46 61.592C334.876 63.896 339.82 65.048 345.292 65.048ZM482.017 1.256V77H472.225V62.024C469.153 67.112 465.073 71 459.985 73.688C454.993 76.376 449.329 77.72 442.993 77.72C435.889 77.72 429.457 76.088 423.697 72.824C417.937 69.56 413.425 65 410.161 59.144C406.897 53.288 405.265 46.616 405.265 39.128C405.265 31.64 406.897 24.968 410.161 19.112C413.425 13.256 417.937 8.744 423.697 5.576C429.457 2.312 435.889 0.679996 442.993 0.679996C449.137 0.679996 454.657 1.976 459.553 4.568C464.545 7.064 468.625 10.76 471.793 15.656V1.256H482.017ZM443.857 68.648C449.137 68.648 453.889 67.448 458.113 65.048C462.433 62.552 465.793 59.048 468.193 54.536C470.689 50.024 471.937 44.888 471.937 39.128C471.937 33.368 470.689 28.232 468.193 23.72C465.793 19.208 462.433 15.752 458.113 13.352C453.889 10.856 449.137 9.608 443.857 9.608C438.481 9.608 433.633 10.856 429.313 13.352C425.089 15.752 421.729 19.208 419.233 23.72C416.833 28.232 415.633 33.368 415.633 39.128C415.633 44.888 416.833 50.024 419.233 54.536C421.729 59.048 425.089 62.552 429.313 65.048C433.633 67.448 438.481 68.648 443.857 68.648ZM595.45 1.256V77H586.09V17.096L555.418 67.784H550.81L520.138 16.952V77H510.778V1.256H521.146L553.258 55.832L585.946 1.256H595.45ZM693.376 1.256V77H683.584V62.024C680.512 67.112 676.432 71 671.344 73.688C666.352 76.376 660.688 77.72 654.352 77.72C647.248 77.72 640.816 76.088 635.056 72.824C629.296 69.56 624.784 65 621.52 59.144C618.256 53.288 616.624 46.616 616.624 39.128C616.624 31.64 618.256 24.968 621.52 19.112C624.784 13.256 629.296 8.744 635.056 5.576C640.816 2.312 647.248 0.679996 654.352 0.679996C660.496 0.679996 666.016 1.976 670.912 4.568C675.904 7.064 679.984 10.76 683.152 15.656V1.256H693.376ZM655.216 68.648C660.496 68.648 665.248 67.448 669.472 65.048C673.792 62.552 677.152 59.048 679.552 54.536C682.048 50.024 683.296 44.888 683.296 39.128C683.296 33.368 682.048 28.232 679.552 23.72C677.152 19.208 673.792 15.752 669.472 13.352C665.248 10.856 660.496 9.608 655.216 9.608C649.84 9.608 644.992 10.856 640.672 13.352C636.448 15.752 633.088 19.208 630.592 23.72C628.192 28.232 626.992 33.368 626.992 39.128C626.992 44.888 628.192 50.024 630.592 54.536C633.088 59.048 636.448 62.552 640.672 65.048C644.992 67.448 649.84 68.648 655.216 68.648ZM753.818 77.72C746.33 77.72 739.61 76.088 733.658 72.824C727.802 69.56 723.194 65 719.834 59.144C716.474 53.192 714.794 46.52 714.794 39.128C714.794 31.736 716.474 25.112 719.834 19.256C723.194 13.4 727.802 8.84 733.658 5.576C739.61 2.312 746.33 0.679996 753.818 0.679996C760.346 0.679996 766.154 1.976 771.242 4.568C776.426 7.064 780.506 10.76 783.482 15.656L775.85 20.84C773.354 17.096 770.186 14.312 766.346 12.488C762.506 10.568 758.33 9.608 753.818 9.608C748.346 9.608 743.402 10.856 738.986 13.352C734.666 15.752 731.258 19.208 728.762 23.72C726.362 28.232 725.162 33.368 725.162 39.128C725.162 44.984 726.362 50.168 728.762 54.68C731.258 59.096 734.666 62.552 738.986 65.048C743.402 67.448 748.346 68.648 753.818 68.648C758.33 68.648 762.506 67.736 766.346 65.912C770.186 64.088 773.354 61.304 775.85 57.56L783.482 62.744C780.506 67.64 776.426 71.384 771.242 73.976C766.058 76.472 760.25 77.72 753.818 77.72ZM833.374 78.584C823.006 78.584 815.038 76.04 809.47 70.952C803.998 65.768 801.262 58.472 801.262 49.064V1.256H811.486V32.792C813.79 30.008 817.006 27.704 821.134 25.88C825.262 24.056 830.062 23.144 835.534 23.144C844.75 23.144 851.902 25.544 856.99 30.344C862.174 35.048 864.766 41.48 864.766 49.64C864.766 55.304 863.47 60.344 860.878 64.76C858.382 69.08 854.734 72.488 849.934 74.984C845.23 77.384 839.71 78.584 833.374 78.584ZM877.15 1.256H887.374V77H877.15V1.256ZM833.662 70.664C840.19 70.664 845.278 68.744 848.926 64.904C852.574 60.968 854.398 55.976 854.398 49.928C854.398 44.264 852.526 39.704 848.782 36.248C845.038 32.696 839.758 30.92 832.942 30.92C827.95 30.92 823.582 31.976 819.838 34.088C816.19 36.2 813.406 39.128 811.486 42.872V49.784C811.486 56.312 813.358 61.448 817.102 65.192C820.942 68.84 826.462 70.664 833.662 70.664ZM916.482 1.256H926.706V34.808H974.37V1.256H984.594V77H974.37V43.592H926.706V77H916.482V1.256ZM1120.17 1.256V77H1110.38V62.024C1107.31 67.112 1103.23 71 1098.14 73.688C1093.15 76.376 1087.48 77.72 1081.15 77.72C1074.04 77.72 1067.61 76.088 1061.85 72.824C1056.09 69.56 1051.58 65 1048.32 59.144C1045.05 53.288 1043.42 46.616 1043.42 39.128C1043.42 31.64 1045.05 24.968 1048.32 19.112C1051.58 13.256 1056.09 8.744 1061.85 5.576C1067.61 2.312 1074.04 0.679996 1081.15 0.679996C1087.29 0.679996 1092.81 1.976 1097.71 4.568C1102.7 7.064 1106.78 10.76 1109.95 15.656V1.256H1120.17ZM1082.01 68.648C1087.29 68.648 1092.04 67.448 1096.27 65.048C1100.59 62.552 1103.95 59.048 1106.35 54.536C1108.84 50.024 1110.09 44.888 1110.09 39.128C1110.09 33.368 1108.84 28.232 1106.35 23.72C1103.95 19.208 1100.59 15.752 1096.27 13.352C1092.04 10.856 1087.29 9.608 1082.01 9.608C1076.64 9.608 1071.79 10.856 1067.47 13.352C1063.24 15.752 1059.88 19.208 1057.39 23.72C1054.99 28.232 1053.79 33.368 1053.79 39.128C1053.79 44.888 1054.99 50.024 1057.39 54.536C1059.88 59.048 1063.24 62.552 1067.47 65.048C1071.79 67.448 1076.64 68.648 1082.01 68.648ZM1210.85 1.256V77H1200.63V10.328H1164.34L1163.33 29.048C1162.57 44.792 1160.74 56.888 1157.86 65.336C1154.98 73.784 1149.85 78.008 1142.45 78.008C1140.44 78.008 1137.99 77.624 1135.11 76.856L1135.83 68.072C1137.56 68.456 1138.76 68.648 1139.43 68.648C1143.37 68.648 1146.34 66.824 1148.36 63.176C1150.37 59.528 1151.72 55.016 1152.39 49.64C1153.06 44.264 1153.64 37.16 1154.12 28.328L1155.41 1.256H1210.85ZM1307.89 1.256V67.784C1307.89 80.648 1304.96 90.152 1299.1 96.296C1293.25 102.536 1284.42 105.656 1272.61 105.656C1265.98 105.656 1259.7 104.6 1253.74 102.488C1247.89 100.472 1243.14 97.64 1239.49 93.992L1244.67 86.216C1247.94 89.48 1251.97 92.024 1256.77 93.848C1261.57 95.672 1266.7 96.584 1272.18 96.584C1280.91 96.584 1287.34 94.328 1291.47 89.816C1295.6 85.4 1297.66 78.488 1297.66 69.08V60.296C1294.98 64.712 1291.28 68.12 1286.58 70.52C1281.97 72.92 1276.74 74.12 1270.88 74.12C1260.99 74.12 1253.17 71.384 1247.41 65.912C1241.74 60.344 1238.91 52.232 1238.91 41.576V1.256H1249.14V40.568C1249.14 48.536 1251.1 54.584 1255.04 58.712C1258.98 62.84 1264.59 64.904 1271.89 64.904C1279.86 64.904 1286.14 62.504 1290.75 57.704C1295.36 52.808 1297.66 46.04 1297.66 37.4V1.256H1307.89ZM1349.19 10.328V39.704H1382.31V47.192H1349.19V77H1338.97V47.192H1328.89V39.704H1338.97V1.256H1392.54V10.328H1349.19ZM1474.41 1.256V77H1464.62V62.024C1461.54 67.112 1457.46 71 1452.38 73.688C1447.38 76.376 1441.72 77.72 1435.38 77.72C1428.28 77.72 1421.85 76.088 1416.09 72.824C1410.33 69.56 1405.82 65 1402.55 59.144C1399.29 53.288 1397.66 46.616 1397.66 39.128C1397.66 31.64 1399.29 24.968 1402.55 19.112C1405.82 13.256 1410.33 8.744 1416.09 5.576C1421.85 2.312 1428.28 0.679996 1435.38 0.679996C1441.53 0.679996 1447.05 1.976 1451.94 4.568C1456.94 7.064 1461.02 10.76 1464.18 15.656V1.256H1474.41ZM1436.25 68.648C1441.53 68.648 1446.28 67.448 1450.5 65.048C1454.82 62.552 1458.18 59.048 1460.58 54.536C1463.08 50.024 1464.33 44.888 1464.33 39.128C1464.33 33.368 1463.08 28.232 1460.58 23.72C1458.18 19.208 1454.82 15.752 1450.5 13.352C1446.28 10.856 1441.53 9.608 1436.25 9.608C1430.87 9.608 1426.02 10.856 1421.7 13.352C1417.48 15.752 1414.12 19.208 1411.62 23.72C1409.22 28.232 1408.02 33.368 1408.02 39.128C1408.02 44.888 1409.22 50.024 1411.62 54.536C1414.12 59.048 1417.48 62.552 1421.7 65.048C1426.02 67.448 1430.87 68.648 1436.25 68.648ZM1568.36 43.304H1551.08V77H1540.86V1.256H1551.08V34.52H1568.5L1595.14 1.256H1606.23L1576.42 37.976L1608.39 77H1596.3L1568.36 43.304ZM1615.3 68.216V93.704H1605.94V77H1596.3V68.216H1615.3ZM1690.69 1.256V77H1680.9V62.024C1677.82 67.112 1673.74 71 1668.66 73.688C1663.66 76.376 1658 77.72 1651.66 77.72C1644.56 77.72 1638.13 76.088 1632.37 72.824C1626.61 69.56 1622.1 65 1618.83 59.144C1615.57 53.288 1613.94 46.616 1613.94 39.128C1613.94 31.64 1615.57 24.968 1618.83 19.112C1622.1 13.256 1626.61 8.744 1632.37 5.576C1638.13 2.312 1644.56 0.679996 1651.66 0.679996C1657.81 0.679996 1663.33 1.976 1668.22 4.568C1673.22 7.064 1677.3 10.76 1680.46 15.656V1.256H1690.69ZM1652.53 68.648C1657.81 68.648 1662.56 67.448 1666.78 65.048C1671.1 62.552 1674.46 59.048 1676.86 54.536C1679.36 50.024 1680.61 44.888 1680.61 39.128C1680.61 33.368 1679.36 28.232 1676.86 23.72C1674.46 19.208 1671.1 15.752 1666.78 13.352C1662.56 10.856 1657.81 9.608 1652.53 9.608C1647.15 9.608 1642.3 10.856 1637.98 13.352C1633.76 15.752 1630.4 19.208 1627.9 23.72C1625.5 28.232 1624.3 33.368 1624.3 39.128C1624.3 44.888 1625.5 50.024 1627.9 54.536C1630.4 59.048 1633.76 62.552 1637.98 65.048C1642.3 67.448 1647.15 68.648 1652.53 68.648ZM1813.91 0.679996C1823.42 0.679996 1830.86 3.416 1836.23 8.888C1841.71 14.36 1844.44 22.424 1844.44 33.08V77H1834.22V34.088C1834.22 26.216 1832.3 20.216 1828.46 16.088C1824.71 11.96 1819.39 9.896 1812.47 9.896C1804.6 9.896 1798.41 12.344 1793.9 17.24C1789.39 22.04 1787.13 28.712 1787.13 37.256V77H1776.91V34.088C1776.91 26.216 1774.99 20.216 1771.15 16.088C1767.4 11.96 1762.03 9.896 1755.02 9.896C1747.24 9.896 1741.05 12.344 1736.44 17.24C1731.93 22.04 1729.67 28.712 1729.67 37.256V77H1719.45V1.256H1729.24V15.08C1731.93 10.472 1735.67 6.92 1740.47 4.424C1745.27 1.928 1750.79 0.679996 1757.03 0.679996C1763.37 0.679996 1768.84 2.024 1773.45 4.712C1778.15 7.39999 1781.66 11.384 1783.96 16.664C1786.75 11.672 1790.73 7.784 1795.91 5C1801.19 2.12 1807.19 0.679996 1813.91 0.679996ZM1901.28 78.584C1890.91 78.584 1882.94 76.04 1877.38 70.952C1871.9 65.768 1869.17 58.472 1869.17 49.064V1.256H1879.39V32.792C1881.7 30.008 1884.91 27.704 1889.04 25.88C1893.17 24.056 1897.97 23.144 1903.44 23.144C1912.66 23.144 1919.81 25.544 1924.9 30.344C1930.08 35.048 1932.67 41.48 1932.67 49.64C1932.67 55.304 1931.38 60.344 1928.78 64.76C1926.29 69.08 1922.64 72.488 1917.84 74.984C1913.14 77.384 1907.62 78.584 1901.28 78.584ZM1945.06 1.256H1955.28V77H1945.06V1.256ZM1901.57 70.664C1908.1 70.664 1913.18 68.744 1916.83 64.904C1920.48 60.968 1922.3 55.976 1922.3 49.928C1922.3 44.264 1920.43 39.704 1916.69 36.248C1912.94 32.696 1907.66 30.92 1900.85 30.92C1895.86 30.92 1891.49 31.976 1887.74 34.088C1884.1 36.2 1881.31 39.128 1879.39 42.872V49.784C1879.39 56.312 1881.26 61.448 1885.01 65.192C1888.85 68.84 1894.37 70.664 1901.57 70.664ZM2016.07 77.72C2008.58 77.72 2001.86 76.088 1995.91 72.824C1990.05 69.56 1985.44 65 1982.08 59.144C1978.72 53.192 1977.04 46.52 1977.04 39.128C1977.04 31.736 1978.72 25.112 1982.08 19.256C1985.44 13.4 1990.05 8.84 1995.91 5.576C2001.86 2.312 2008.58 0.679996 2016.07 0.679996C2022.6 0.679996 2028.4 1.976 2033.49 4.568C2038.68 7.064 2042.76 10.76 2045.73 15.656L2038.1 20.84C2035.6 17.096 2032.44 14.312 2028.6 12.488C2024.76 10.568 2020.58 9.608 2016.07 9.608C2010.6 9.608 2005.65 10.856 2001.24 13.352C1996.92 15.752 1993.51 19.208 1991.01 23.72C1988.61 28.232 1987.41 33.368 1987.41 39.128C1987.41 44.984 1988.61 50.168 1991.01 54.68C1993.51 59.096 1996.92 62.552 2001.24 65.048C2005.65 67.448 2010.6 68.648 2016.07 68.648C2020.58 68.648 2024.76 67.736 2028.6 65.912C2032.44 64.088 2035.6 61.304 2038.1 57.56L2045.73 62.744C2042.76 67.64 2038.68 71.384 2033.49 73.976C2028.31 76.472 2022.5 77.72 2016.07 77.72ZM2095.62 78.584C2085.26 78.584 2077.29 76.04 2071.72 70.952C2066.25 65.768 2063.51 58.472 2063.51 49.064V1.256H2073.74V32.792C2076.04 30.008 2079.26 27.704 2083.38 25.88C2087.51 24.056 2092.31 23.144 2097.78 23.144C2107 23.144 2114.15 25.544 2119.24 30.344C2124.42 35.048 2127.02 41.48 2127.02 49.64C2127.02 55.304 2125.72 60.344 2123.13 64.76C2120.63 69.08 2116.98 72.488 2112.18 74.984C2107.48 77.384 2101.96 78.584 2095.62 78.584ZM2139.4 1.256H2149.62V77H2139.4V1.256ZM2095.91 70.664C2102.44 70.664 2107.53 68.744 2111.18 64.904C2114.82 60.968 2116.65 55.976 2116.65 49.928C2116.65 44.264 2114.78 39.704 2111.03 36.248C2107.29 32.696 2102.01 30.92 2095.19 30.92C2090.2 30.92 2085.83 31.976 2082.09 34.088C2078.44 36.2 2075.66 39.128 2073.74 42.872V49.784C2073.74 56.312 2075.61 61.448 2079.35 65.192C2083.19 68.84 2088.71 70.664 2095.91 70.664ZM2178.73 1.256H2188.96V34.808H2236.62V1.256H2246.84V77H2236.62V43.592H2188.96V77H2178.73V1.256ZM2259.08 68.072V93.56H2249.44V77H2236.62V68.072H2259.08ZM2308.81 78.584C2298.44 78.584 2290.48 76.04 2284.91 70.952C2279.44 65.768 2276.7 58.472 2276.7 49.064V1.256H2286.92V32.792C2289.23 30.008 2292.44 27.704 2296.57 25.88C2300.7 24.056 2305.5 23.144 2310.97 23.144C2320.19 23.144 2327.34 25.544 2332.43 30.344C2337.61 35.048 2340.2 41.48 2340.2 49.64C2340.2 55.304 2338.91 60.344 2336.32 64.76C2333.82 69.08 2330.17 72.488 2325.37 74.984C2320.67 77.384 2315.15 78.584 2308.81 78.584ZM2352.59 1.256H2362.81V77H2352.59V1.256ZM2309.1 70.664C2315.63 70.664 2320.72 68.744 2324.36 64.904C2328.01 60.968 2329.84 55.976 2329.84 49.928C2329.84 44.264 2327.96 39.704 2324.22 36.248C2320.48 32.696 2315.2 30.92 2308.38 30.92C2303.39 30.92 2299.02 31.976 2295.28 34.088C2291.63 36.2 2288.84 39.128 2286.92 42.872V49.784C2286.92 56.312 2288.8 61.448 2292.54 65.192C2296.38 68.84 2301.9 70.664 2309.1 70.664ZM2427.24 37.544C2432.61 38.792 2436.74 40.952 2439.62 44.024C2442.6 47.096 2444.08 50.84 2444.08 55.256C2444.08 59.672 2442.55 63.608 2439.48 67.064C2436.5 70.52 2432.42 73.208 2427.24 75.128C2422.05 76.952 2416.34 77.864 2410.1 77.864C2404.63 77.864 2399.25 77.096 2393.97 75.56C2388.69 73.928 2384.08 71.576 2380.15 68.504L2383.6 60.872C2387.06 63.464 2391.09 65.48 2395.7 66.92C2400.31 68.36 2404.96 69.08 2409.67 69.08C2416.68 69.08 2422.39 67.784 2426.8 65.192C2431.32 62.504 2433.57 58.904 2433.57 54.392C2433.57 50.36 2431.75 47.24 2428.1 45.032C2424.45 42.728 2419.46 41.576 2413.12 41.576H2400.16V34.088H2412.55C2418.21 34.088 2422.77 33.032 2426.23 30.92C2429.68 28.712 2431.41 25.784 2431.41 22.136C2431.41 18.104 2429.44 14.936 2425.51 12.632C2421.67 10.328 2416.63 9.176 2410.39 9.176C2402.23 9.176 2394.16 11.24 2386.2 15.368L2383.32 7.448C2392.34 2.744 2401.7 0.391999 2411.4 0.391999C2417.16 0.391999 2422.34 1.256 2426.95 2.984C2431.65 4.616 2435.3 6.968 2437.89 10.04C2440.58 13.112 2441.92 16.664 2441.92 20.696C2441.92 24.536 2440.58 27.944 2437.89 30.92C2435.3 33.896 2431.75 36.104 2427.24 37.544Z" fill="white"></path> </svg> 