<?xml version="1.0" encoding="UTF-8"?> <svg xmlns="http://www.w3.org/2000/svg" width="3253" height="141" viewBox="0 0 3253 141" fill="none"> <path d="M34.4 65.776H11.36V112H0.992001V11.2H11.36V56.416H34.4L68.528 11.2H80.048L42.608 60.16L82.208 112H69.968L34.4 65.776ZM131.621 35.68C139.109 35.68 145.829 37.312 151.781 40.576C157.733 43.84 162.389 48.4 165.749 54.256C169.205 60.112 170.933 66.736 170.933 74.128C170.933 81.52 169.205 88.144 165.749 94C162.389 99.856 157.733 104.464 151.781 107.824C145.829 111.088 139.109 112.72 131.621 112.72C124.133 112.72 117.365 111.088 111.317 107.824C105.365 104.464 100.709 99.856 97.3494 94C93.9894 88.144 92.3094 81.52 92.3094 74.128C92.3094 66.736 93.9894 60.112 97.3494 54.256C100.709 48.4 105.365 43.84 111.317 40.576C117.365 37.312 124.133 35.68 131.621 35.68ZM131.621 43.888C123.653 43.888 116.933 46.336 111.461 51.232C106.085 56.032 103.013 62.416 102.245 70.384H160.997C160.133 62.416 157.013 56.032 151.637 51.232C146.261 46.336 139.589 43.888 131.621 43.888ZM131.621 104.368C139.589 104.368 146.261 101.92 151.637 97.024C157.109 92.128 160.229 85.696 160.997 77.728H102.245C103.013 85.696 106.085 92.128 111.461 97.024C116.933 101.92 123.653 104.368 131.621 104.368ZM227.595 35.68C234.987 35.68 241.563 37.312 247.323 40.576C253.083 43.84 257.547 48.4 260.715 54.256C263.979 60.112 265.611 66.784 265.611 74.272C265.611 81.76 264.027 88.432 260.859 94.288C257.691 100.048 253.275 104.56 247.611 107.824C242.043 111.088 235.659 112.72 228.459 112.72C222.123 112.72 216.459 111.472 211.467 108.976C206.571 106.384 202.587 102.688 199.515 97.888V139.936H189.291V74.416C189.291 66.832 190.875 60.112 194.043 54.256C197.307 48.4 201.819 43.84 207.579 40.576C213.435 37.312 220.107 35.68 227.595 35.68ZM227.307 103.792C232.683 103.792 237.531 102.544 241.851 100.048C246.171 97.552 249.531 94.048 251.931 89.536C254.331 85.024 255.531 79.936 255.531 74.272C255.531 68.608 254.331 63.52 251.931 59.008C249.531 54.496 246.171 50.992 241.851 48.496C237.531 45.904 232.683 44.608 227.307 44.608C221.931 44.608 217.083 45.856 212.763 48.352C208.539 50.848 205.227 54.352 202.827 58.864C200.523 63.28 199.371 68.368 199.371 74.128C199.371 79.888 200.523 85.024 202.827 89.536C205.227 94.048 208.539 97.552 212.763 100.048C217.083 102.544 221.931 103.792 227.307 103.792ZM355.637 36.256V102.784C355.637 115.648 352.709 125.152 346.853 131.296C340.997 137.536 332.165 140.656 320.357 140.656C313.733 140.656 307.445 139.6 301.493 137.488C295.637 135.472 290.885 132.64 287.237 128.992L292.421 121.216C295.685 124.48 299.717 127.024 304.517 128.848C309.317 130.672 314.453 131.584 319.925 131.584C328.661 131.584 335.093 129.328 339.221 124.816C343.349 120.4 345.413 113.488 345.413 104.08V95.296C342.725 99.712 339.029 103.12 334.325 105.52C329.717 107.92 324.485 109.12 318.629 109.12C308.741 109.12 300.917 106.384 295.157 100.912C289.493 95.344 286.661 87.232 286.661 76.576V36.256H296.885V75.568C296.885 83.536 298.853 89.584 302.789 93.712C306.725 97.84 312.341 99.904 319.637 99.904C327.605 99.904 333.893 97.504 338.501 92.704C343.109 87.808 345.413 81.04 345.413 72.4V36.256H355.637ZM449.751 78.304H432.471V112H422.247V36.256H432.471V69.52H449.895L476.535 36.256H487.623L457.815 72.976L489.783 112H477.687L449.751 78.304ZM496.695 103.216V128.704H487.335V112H477.687V103.216H496.695ZM572.079 36.256V112H562.287V97.024C559.215 102.112 555.135 106 550.047 108.688C545.055 111.376 539.391 112.72 533.055 112.72C525.951 112.72 519.519 111.088 513.759 107.824C507.999 104.56 503.487 100 500.223 94.144C496.959 88.288 495.327 81.616 495.327 74.128C495.327 66.64 496.959 59.968 500.223 54.112C503.487 48.256 507.999 43.744 513.759 40.576C519.519 37.312 525.951 35.68 533.055 35.68C539.199 35.68 544.719 36.976 549.615 39.568C554.607 42.064 558.687 45.76 561.855 50.656V36.256H572.079ZM533.919 103.648C539.199 103.648 543.951 102.448 548.175 100.048C552.495 97.552 555.855 94.048 558.255 89.536C560.751 85.024 561.999 79.888 561.999 74.128C561.999 68.368 560.751 63.232 558.255 58.72C555.855 54.208 552.495 50.752 548.175 48.352C543.951 45.856 539.199 44.608 533.919 44.608C528.543 44.608 523.695 45.856 519.375 48.352C515.151 50.752 511.791 54.208 509.295 58.72C506.895 63.232 505.695 68.368 505.695 74.128C505.695 79.888 506.895 85.024 509.295 89.536C511.791 94.048 515.151 97.552 519.375 100.048C523.695 102.448 528.543 103.648 533.919 103.648ZM637.561 38.128C644.569 38.128 650.809 39.712 656.281 42.88C661.849 45.952 666.169 50.32 669.241 55.984C672.313 61.552 673.849 67.936 673.849 75.136C673.849 82.528 672.217 89.104 668.953 94.864C665.785 100.528 661.321 104.944 655.561 108.112C649.801 111.28 643.177 112.864 635.689 112.864C623.113 112.864 613.369 108.448 606.457 99.616C599.545 90.784 596.089 78.592 596.089 63.04C596.089 46.816 599.161 34.384 605.305 25.744C611.545 17.104 621.241 11.248 634.393 8.176L668.377 0.399995L670.105 9.75999L638.137 17.104C627.289 19.504 619.321 23.776 614.233 29.92C609.145 35.968 606.361 44.944 605.881 56.848C608.953 50.992 613.225 46.432 618.697 43.168C624.169 39.808 630.457 38.128 637.561 38.128ZM635.977 104.368C641.257 104.368 645.961 103.168 650.089 100.768C654.313 98.272 657.577 94.816 659.881 90.4C662.281 85.984 663.481 80.992 663.481 75.424C663.481 69.856 662.329 64.96 660.025 60.736C657.721 56.512 654.457 53.248 650.233 50.944C646.105 48.544 641.353 47.344 635.977 47.344C630.601 47.344 625.801 48.544 621.577 50.944C617.449 53.248 614.185 56.512 611.785 60.736C609.481 64.96 608.329 69.856 608.329 75.424C608.329 80.992 609.481 85.984 611.785 90.4C614.185 94.816 617.497 98.272 621.721 100.768C625.945 103.168 630.697 104.368 635.977 104.368ZM695.763 36.256H705.987V112H695.763V36.256ZM700.947 19.696C698.835 19.696 697.059 18.976 695.619 17.536C694.179 16.096 693.459 14.368 693.459 12.352C693.459 10.432 694.179 8.752 695.619 7.31199C697.059 5.87199 698.835 5.15199 700.947 5.15199C703.059 5.15199 704.835 5.87199 706.275 7.31199C707.715 8.65599 708.435 10.288 708.435 12.208C708.435 14.32 707.715 16.096 706.275 17.536C704.835 18.976 703.059 19.696 700.947 19.696ZM797.058 36.256V112H786.834V45.328H750.546L749.538 64.048C748.77 79.792 746.946 91.888 744.066 100.336C741.186 108.784 736.05 113.008 728.658 113.008C726.642 113.008 724.194 112.624 721.314 111.856L722.034 103.072C723.762 103.456 724.962 103.648 725.634 103.648C729.57 103.648 732.546 101.824 734.562 98.176C736.578 94.528 737.922 90.016 738.594 84.64C739.266 79.264 739.842 72.16 740.322 63.328L741.618 36.256H797.058ZM858.234 103.648C862.938 103.648 867.258 102.832 871.194 101.2C875.226 99.472 878.634 96.976 881.418 93.712L887.178 100.336C883.818 104.368 879.642 107.44 874.65 109.552C869.658 111.664 864.138 112.72 858.09 112.72C850.314 112.72 843.402 111.088 837.354 107.824C831.306 104.464 826.602 99.856 823.242 94C819.882 88.144 818.202 81.52 818.202 74.128C818.202 66.736 819.786 60.112 822.954 54.256C826.218 48.4 830.682 43.84 836.346 40.576C842.01 37.312 848.442 35.68 855.642 35.68C862.362 35.68 868.41 37.216 873.786 40.288C879.258 43.36 883.578 47.632 886.746 53.104C890.01 58.576 891.738 64.816 891.93 71.824L829.722 83.92C831.642 90.064 835.098 94.912 840.09 98.464C845.178 101.92 851.226 103.648 858.234 103.648ZM855.642 44.464C850.362 44.464 845.61 45.712 841.386 48.208C837.258 50.608 833.994 54.016 831.594 58.432C829.29 62.752 828.138 67.744 828.138 73.408C828.138 74.848 828.186 75.904 828.282 76.576L881.706 66.208C880.554 59.872 877.626 54.688 872.922 50.656C868.218 46.528 862.458 44.464 855.642 44.464ZM1007.49 35.68C1017 35.68 1024.44 38.416 1029.81 43.888C1035.28 49.36 1038.02 57.424 1038.02 68.08V112H1027.8V69.088C1027.8 61.216 1025.88 55.216 1022.04 51.088C1018.29 46.96 1012.96 44.896 1006.05 44.896C998.18 44.896 991.988 47.344 987.476 52.24C982.964 57.04 980.708 63.712 980.708 72.256V112H970.484V69.088C970.484 61.216 968.564 55.216 964.724 51.088C960.98 46.96 955.604 44.896 948.596 44.896C940.82 44.896 934.628 47.344 930.02 52.24C925.508 57.04 923.252 63.712 923.252 72.256V112H913.028V36.256H922.82V50.08C925.508 45.472 929.252 41.92 934.052 39.424C938.852 36.928 944.372 35.68 950.612 35.68C956.948 35.68 962.42 37.024 967.028 39.712C971.732 42.4 975.236 46.384 977.54 51.664C980.324 46.672 984.308 42.784 989.492 40C994.772 37.12 1000.77 35.68 1007.49 35.68ZM1064.76 36.256H1074.99V112H1064.76V36.256ZM1069.95 19.696C1067.83 19.696 1066.06 18.976 1064.62 17.536C1063.18 16.096 1062.46 14.368 1062.46 12.352C1062.46 10.432 1063.18 8.752 1064.62 7.31199C1066.06 5.87199 1067.83 5.15199 1069.95 5.15199C1072.06 5.15199 1073.83 5.87199 1075.27 7.31199C1076.71 8.65599 1077.43 10.288 1077.43 12.208C1077.43 14.32 1076.71 16.096 1075.27 17.536C1073.83 18.976 1072.06 19.696 1069.95 19.696ZM1236.29 35.68C1245.79 35.68 1253.23 38.416 1258.61 43.888C1264.08 49.36 1266.82 57.424 1266.82 68.08V112H1256.59V69.088C1256.59 61.216 1254.67 55.216 1250.83 51.088C1247.09 46.96 1241.76 44.896 1234.85 44.896C1226.98 44.896 1220.79 47.344 1216.27 52.24C1211.76 57.04 1209.51 63.712 1209.51 72.256V112H1199.28V69.088C1199.28 61.216 1197.36 55.216 1193.52 51.088C1189.78 46.96 1184.4 44.896 1177.39 44.896C1169.62 44.896 1163.43 47.344 1158.82 52.24C1154.31 57.04 1152.05 63.712 1152.05 72.256V112H1141.83V36.256H1151.62V50.08C1154.31 45.472 1158.05 41.92 1162.85 39.424C1167.65 36.928 1173.17 35.68 1179.41 35.68C1185.75 35.68 1191.22 37.024 1195.83 39.712C1200.53 42.4 1204.03 46.384 1206.34 51.664C1209.12 46.672 1213.11 42.784 1218.29 40C1223.57 37.12 1229.57 35.68 1236.29 35.68ZM1325.53 35.68C1333.02 35.68 1339.74 37.312 1345.69 40.576C1351.64 43.84 1356.3 48.4 1359.66 54.256C1363.11 60.112 1364.84 66.736 1364.84 74.128C1364.84 81.52 1363.11 88.144 1359.66 94C1356.3 99.856 1351.64 104.464 1345.69 107.824C1339.74 111.088 1333.02 112.72 1325.53 112.72C1318.04 112.72 1311.27 111.088 1305.22 107.824C1299.27 104.464 1294.62 99.856 1291.26 94C1287.9 88.144 1286.22 81.52 1286.22 74.128C1286.22 66.736 1287.9 60.112 1291.26 54.256C1294.62 48.4 1299.27 43.84 1305.22 40.576C1311.27 37.312 1318.04 35.68 1325.53 35.68ZM1325.53 43.888C1317.56 43.888 1310.84 46.336 1305.37 51.232C1299.99 56.032 1296.92 62.416 1296.15 70.384H1354.9C1354.04 62.416 1350.92 56.032 1345.54 51.232C1340.17 46.336 1333.5 43.888 1325.53 43.888ZM1325.53 104.368C1333.5 104.368 1340.17 101.92 1345.54 97.024C1351.02 92.128 1354.14 85.696 1354.9 77.728H1296.15C1296.92 85.696 1299.99 92.128 1305.37 97.024C1310.84 101.92 1317.56 104.368 1325.53 104.368ZM1471.33 36.256V112H1461.97V52.096L1431.29 102.784H1426.69L1396.01 51.952V112H1386.65V36.256H1397.02L1429.13 90.832L1461.82 36.256H1471.33ZM1532.53 103.648C1537.24 103.648 1541.56 102.832 1545.49 101.2C1549.52 99.472 1552.93 96.976 1555.72 93.712L1561.48 100.336C1558.12 104.368 1553.94 107.44 1548.95 109.552C1543.96 111.664 1538.44 112.72 1532.39 112.72C1524.61 112.72 1517.7 111.088 1511.65 107.824C1505.6 104.464 1500.9 99.856 1497.54 94C1494.18 88.144 1492.5 81.52 1492.5 74.128C1492.5 66.736 1494.08 60.112 1497.25 54.256C1500.52 48.4 1504.98 43.84 1510.64 40.576C1516.31 37.312 1522.74 35.68 1529.94 35.68C1536.66 35.68 1542.71 37.216 1548.08 40.288C1553.56 43.36 1557.88 47.632 1561.04 53.104C1564.31 58.576 1566.04 64.816 1566.23 71.824L1504.02 83.92C1505.94 90.064 1509.4 94.912 1514.39 98.464C1519.48 101.92 1525.52 103.648 1532.53 103.648ZM1529.94 44.464C1524.66 44.464 1519.91 45.712 1515.68 48.208C1511.56 50.608 1508.29 54.016 1505.89 58.432C1503.59 62.752 1502.44 67.744 1502.44 73.408C1502.44 74.848 1502.48 75.904 1502.58 76.576L1556 66.208C1554.85 59.872 1551.92 54.688 1547.22 50.656C1542.52 46.528 1536.76 44.464 1529.94 44.464ZM1587.33 36.256H1597.55V69.808H1645.21V36.256H1655.44V112H1645.21V78.592H1597.55V112H1587.33V36.256ZM1754.48 36.256V102.784C1754.48 115.648 1751.31 125.152 1744.98 131.296C1738.74 137.536 1729.28 140.656 1716.61 140.656C1709.6 140.656 1702.93 139.6 1696.59 137.488C1690.35 135.472 1685.27 132.64 1681.33 128.992L1686.51 121.216C1690.16 124.48 1694.58 127.024 1699.76 128.848C1705.04 130.672 1710.56 131.584 1716.32 131.584C1725.92 131.584 1732.98 129.328 1737.49 124.816C1742 120.4 1744.26 113.488 1744.26 104.08V94.432C1741.09 99.232 1736.91 102.88 1731.73 105.376C1726.64 107.872 1720.98 109.12 1714.74 109.12C1707.63 109.12 1701.15 107.584 1695.3 104.512C1689.54 101.344 1684.98 96.976 1681.62 91.408C1678.35 85.744 1676.72 79.36 1676.72 72.256C1676.72 65.152 1678.35 58.816 1681.62 53.248C1684.98 47.68 1689.54 43.36 1695.3 40.288C1701.06 37.216 1707.54 35.68 1714.74 35.68C1721.17 35.68 1726.98 36.976 1732.16 39.568C1737.35 42.16 1741.52 45.904 1744.69 50.8V36.256H1754.48ZM1715.75 100.048C1721.22 100.048 1726.16 98.896 1730.58 96.592C1734.99 94.192 1738.4 90.88 1740.8 86.656C1743.3 82.432 1744.55 77.632 1744.55 72.256C1744.55 66.88 1743.3 62.128 1740.8 58C1738.4 53.776 1734.99 50.512 1730.58 48.208C1726.26 45.808 1721.31 44.608 1715.75 44.608C1710.27 44.608 1705.33 45.76 1700.91 48.064C1696.59 50.368 1693.19 53.632 1690.69 57.856C1688.29 62.08 1687.09 66.88 1687.09 72.256C1687.09 77.632 1688.29 82.432 1690.69 86.656C1693.19 90.88 1696.59 94.192 1700.91 96.592C1705.33 98.896 1710.27 100.048 1715.75 100.048ZM1783.64 36.256H1793.86V112H1783.64V36.256ZM1788.82 19.696C1786.71 19.696 1784.93 18.976 1783.49 17.536C1782.05 16.096 1781.33 14.368 1781.33 12.352C1781.33 10.432 1782.05 8.752 1783.49 7.31199C1784.93 5.87199 1786.71 5.15199 1788.82 5.15199C1790.93 5.15199 1792.71 5.87199 1794.15 7.31199C1795.59 8.65599 1796.31 10.288 1796.31 12.208C1796.31 14.32 1795.59 16.096 1794.15 17.536C1792.71 18.976 1790.93 19.696 1788.82 19.696ZM1876.58 45.328H1833.24V112H1823.01V36.256H1876.58V45.328ZM1891.36 36.256H1901.58V112H1891.36V36.256ZM1896.54 19.696C1894.43 19.696 1892.65 18.976 1891.21 17.536C1889.77 16.096 1889.05 14.368 1889.05 12.352C1889.05 10.432 1889.77 8.752 1891.21 7.31199C1892.65 5.87199 1894.43 5.15199 1896.54 5.15199C1898.65 5.15199 1900.43 5.87199 1901.87 7.31199C1903.31 8.65599 1904.03 10.288 1904.03 12.208C1904.03 14.32 1903.31 16.096 1901.87 17.536C1900.43 18.976 1898.65 19.696 1896.54 19.696ZM1992.65 36.256V112H1982.43V45.328H1946.14L1945.13 64.048C1944.36 79.792 1942.54 91.888 1939.66 100.336C1936.78 108.784 1931.64 113.008 1924.25 113.008C1922.24 113.008 1919.79 112.624 1916.91 111.856L1917.63 103.072C1919.36 103.456 1920.56 103.648 1921.23 103.648C1925.16 103.648 1928.14 101.824 1930.16 98.176C1932.17 94.528 1933.52 90.016 1934.19 84.64C1934.86 79.264 1935.44 72.16 1935.92 63.328L1937.21 36.256H1992.65ZM2021.72 36.256H2031.94V112H2021.72V36.256ZM2026.9 19.696C2024.79 19.696 2023.01 18.976 2021.57 17.536C2020.13 16.096 2019.41 14.368 2019.41 12.352C2019.41 10.432 2020.13 8.752 2021.57 7.31199C2023.01 5.87199 2024.79 5.15199 2026.9 5.15199C2029.01 5.15199 2030.79 5.87199 2032.23 7.31199C2033.67 8.65599 2034.39 10.288 2034.39 12.208C2034.39 14.32 2033.67 16.096 2032.23 17.536C2030.79 18.976 2029.01 19.696 2026.9 19.696ZM2145.76 36.256V112H2136.4V52.096L2105.73 102.784H2101.12L2070.45 51.952V112H2061.09V36.256H2071.46L2103.57 90.832L2136.26 36.256H2145.76ZM2206.97 103.648C2211.67 103.648 2215.99 102.832 2219.93 101.2C2223.96 99.472 2227.37 96.976 2230.15 93.712L2235.91 100.336C2232.55 104.368 2228.38 107.44 2223.38 109.552C2218.39 111.664 2212.87 112.72 2206.82 112.72C2199.05 112.72 2192.14 111.088 2186.09 107.824C2180.04 104.464 2175.34 99.856 2171.98 94C2168.62 88.144 2166.94 81.52 2166.94 74.128C2166.94 66.736 2168.52 60.112 2171.69 54.256C2174.95 48.4 2179.42 43.84 2185.08 40.576C2190.74 37.312 2197.18 35.68 2204.38 35.68C2211.1 35.68 2217.14 37.216 2222.52 40.288C2227.99 43.36 2232.31 47.632 2235.48 53.104C2238.74 58.576 2240.47 64.816 2240.66 71.824L2178.46 83.92C2180.38 90.064 2183.83 94.912 2188.82 98.464C2193.91 101.92 2199.96 103.648 2206.97 103.648ZM2204.38 44.464C2199.1 44.464 2194.34 45.712 2190.12 48.208C2185.99 50.608 2182.73 54.016 2180.33 58.432C2178.02 62.752 2176.87 67.744 2176.87 73.408C2176.87 74.848 2176.92 75.904 2177.02 76.576L2230.44 66.208C2229.29 59.872 2226.36 54.688 2221.66 50.656C2216.95 46.528 2211.19 44.464 2204.38 44.464ZM2261.76 36.256H2271.99V69.808H2319.65V36.256H2329.87V112H2319.65V78.592H2271.99V112H2261.76V36.256ZM2424.13 78.304H2406.85V112H2396.62V36.256H2406.85V69.52H2424.27L2450.91 36.256H2462L2432.19 72.976L2464.16 112H2452.06L2424.13 78.304ZM2471.07 103.216V128.704H2461.71V112H2452.06V103.216H2471.07ZM2508.87 112.72C2501.57 112.72 2495 111.088 2489.14 107.824C2483.29 104.464 2478.68 99.856 2475.32 94C2471.96 88.144 2470.28 81.52 2470.28 74.128C2470.28 66.736 2471.96 60.112 2475.32 54.256C2478.68 48.4 2483.29 43.84 2489.14 40.576C2495 37.312 2501.57 35.68 2508.87 35.68C2516.17 35.68 2522.74 37.312 2528.6 40.576C2534.45 43.84 2539.01 48.4 2542.28 54.256C2545.64 60.112 2547.32 66.736 2547.32 74.128C2547.32 81.52 2545.64 88.144 2542.28 94C2539.01 99.856 2534.45 104.464 2528.6 107.824C2522.74 111.088 2516.17 112.72 2508.87 112.72ZM2508.87 103.648C2514.25 103.648 2519.05 102.448 2523.27 100.048C2527.59 97.552 2530.95 94.048 2533.35 89.536C2535.75 85.024 2536.95 79.888 2536.95 74.128C2536.95 68.368 2535.75 63.232 2533.35 58.72C2530.95 54.208 2527.59 50.752 2523.27 48.352C2519.05 45.856 2514.25 44.608 2508.87 44.608C2503.49 44.608 2498.65 45.856 2494.33 48.352C2490.1 50.752 2486.74 54.208 2484.25 58.72C2481.85 63.232 2480.65 68.368 2480.65 74.128C2480.65 79.888 2481.85 85.024 2484.25 89.536C2486.74 94.048 2490.1 97.552 2494.33 100.048C2498.65 102.448 2503.49 103.648 2508.87 103.648ZM2673.71 36.256V112H2569.17V36.256H2579.39V103.072H2616.55V36.256H2626.77V103.072H2663.49V36.256H2673.71ZM2797.37 35.68C2806.87 35.68 2814.31 38.416 2819.69 43.888C2825.16 49.36 2827.9 57.424 2827.9 68.08V112H2817.67V69.088C2817.67 61.216 2815.75 55.216 2811.91 51.088C2808.17 46.96 2802.84 44.896 2795.93 44.896C2788.06 44.896 2781.86 47.344 2777.35 52.24C2772.84 57.04 2770.58 63.712 2770.58 72.256V112H2760.36V69.088C2760.36 61.216 2758.44 55.216 2754.6 51.088C2750.86 46.96 2745.48 44.896 2738.47 44.896C2730.7 44.896 2724.5 47.344 2719.9 52.24C2715.38 57.04 2713.13 63.712 2713.13 72.256V112H2702.9V36.256H2712.7V50.08C2715.38 45.472 2719.13 41.92 2723.93 39.424C2728.73 36.928 2734.25 35.68 2740.49 35.68C2746.82 35.68 2752.3 37.024 2756.9 39.712C2761.61 42.4 2765.11 46.384 2767.42 51.664C2770.2 46.672 2774.18 42.784 2779.37 40C2784.65 37.12 2790.65 35.68 2797.37 35.68ZM2923.47 36.256V112H2913.68V97.024C2910.61 102.112 2906.53 106 2901.44 108.688C2896.45 111.376 2890.78 112.72 2884.45 112.72C2877.34 112.72 2870.91 111.088 2865.15 107.824C2859.39 104.56 2854.88 100 2851.61 94.144C2848.35 88.288 2846.72 81.616 2846.72 74.128C2846.72 66.64 2848.35 59.968 2851.61 54.112C2854.88 48.256 2859.39 43.744 2865.15 40.576C2870.91 37.312 2877.34 35.68 2884.45 35.68C2890.59 35.68 2896.11 36.976 2901.01 39.568C2906 42.064 2910.08 45.76 2913.25 50.656V36.256H2923.47ZM2885.31 103.648C2890.59 103.648 2895.34 102.448 2899.57 100.048C2903.89 97.552 2907.25 94.048 2909.65 89.536C2912.14 85.024 2913.39 79.888 2913.39 74.128C2913.39 68.368 2912.14 63.232 2909.65 58.72C2907.25 54.208 2903.89 50.752 2899.57 48.352C2895.34 45.856 2890.59 44.608 2885.31 44.608C2879.93 44.608 2875.09 45.856 2870.77 48.352C2866.54 50.752 2863.18 54.208 2860.69 58.72C2858.29 63.232 2857.09 68.368 2857.09 74.128C2857.09 79.888 2858.29 85.024 2860.69 89.536C2863.18 94.048 2866.54 97.552 2870.77 100.048C2875.09 102.448 2879.93 103.648 2885.31 103.648ZM2983.91 112.72C2976.42 112.72 2969.7 111.088 2963.75 107.824C2957.9 104.56 2953.29 100 2949.93 94.144C2946.57 88.192 2944.89 81.52 2944.89 74.128C2944.89 66.736 2946.57 60.112 2949.93 54.256C2953.29 48.4 2957.9 43.84 2963.75 40.576C2969.7 37.312 2976.42 35.68 2983.91 35.68C2990.44 35.68 2996.25 36.976 3001.34 39.568C3006.52 42.064 3010.6 45.76 3013.58 50.656L3005.94 55.84C3003.45 52.096 3000.28 49.312 2996.44 47.488C2992.6 45.568 2988.42 44.608 2983.91 44.608C2978.44 44.608 2973.5 45.856 2969.08 48.352C2964.76 50.752 2961.35 54.208 2958.86 58.72C2956.46 63.232 2955.26 68.368 2955.26 74.128C2955.26 79.984 2956.46 85.168 2958.86 89.68C2961.35 94.096 2964.76 97.552 2969.08 100.048C2973.5 102.448 2978.44 103.648 2983.91 103.648C2988.42 103.648 2992.6 102.736 2996.44 100.912C3000.28 99.088 3003.45 96.304 3005.94 92.56L3013.58 97.744C3010.6 102.64 3006.52 106.384 3001.34 108.976C2996.15 111.472 2990.34 112.72 2983.91 112.72ZM3063.47 113.584C3053.1 113.584 3045.13 111.04 3039.56 105.952C3034.09 100.768 3031.36 93.472 3031.36 84.064V36.256H3041.58V67.792C3043.88 65.008 3047.1 62.704 3051.23 60.88C3055.36 59.056 3060.16 58.144 3065.63 58.144C3074.84 58.144 3082 60.544 3087.08 65.344C3092.27 70.048 3094.86 76.48 3094.86 84.64C3094.86 90.304 3093.56 95.344 3090.97 99.76C3088.48 104.08 3084.83 107.488 3080.03 109.984C3075.32 112.384 3069.8 113.584 3063.47 113.584ZM3107.24 36.256H3117.47V112H3107.24V36.256ZM3063.76 105.664C3070.28 105.664 3075.37 103.744 3079.02 99.904C3082.67 95.968 3084.49 90.976 3084.49 84.928C3084.49 79.264 3082.62 74.704 3078.88 71.248C3075.13 67.696 3069.85 65.92 3063.04 65.92C3058.04 65.92 3053.68 66.976 3049.93 69.088C3046.28 71.2 3043.5 74.128 3041.58 77.872V84.784C3041.58 91.312 3043.45 96.448 3047.2 100.192C3051.04 103.84 3056.56 105.664 3063.76 105.664ZM3214.54 36.256V112H3204.32V45.328H3156.8V112H3146.58V36.256H3214.54ZM3244.47 97.024C3246.68 97.024 3248.5 97.792 3249.94 99.328C3251.38 100.768 3252.1 102.592 3252.1 104.8C3252.1 105.952 3251.91 107.2 3251.53 108.544C3251.24 109.888 3250.76 111.424 3250.09 113.152L3244.04 133.024H3237.13L3242.02 112.144C3240.49 111.664 3239.24 110.8 3238.28 109.552C3237.32 108.208 3236.84 106.624 3236.84 104.8C3236.84 102.592 3237.56 100.768 3239 99.328C3240.44 97.792 3242.26 97.024 3244.47 97.024Z" fill="white"></path> </svg> 